<?xml version="1.0" encoding="iso-8859-1"?>
<!-- Generator: Adobe Illustrator 25.2.3, SVG Export Plug-In . SVG Version: 6.00 Build 0)  -->
<svg version="1.1" xmlns="http://www.w3.org/2000/svg" xmlns:xlink="http://www.w3.org/1999/xlink" x="0px" y="0px" width="1920px"
	 height="1080px" viewBox="0 0 1920 1080" enable-background="new 0 0 1920 1080" xml:space="preserve">
<g id="Style_Guide">
</g>
<g id="Web_Stuff">
	<polygon points="448.952,829.036 47.83,1082.088 1437.428,1082.088 	"/>
	<path fill="#FFFFFF" d="M863.609,73.157c2.287,0.865,4.228,3.276,4.803,6.999c0.021,0.136,0.216,0.137,0.238,0.001
		c0.605-3.699,2.514-6.132,4.795-7c0.118-0.045,0.097-0.219-0.029-0.233c-2.742-0.297-3.902-2.068-4.771-6.461
		c-0.026-0.129-0.219-0.131-0.237,0c-0.579,4.393-2.049,6.155-4.772,6.46C863.509,72.938,863.489,73.112,863.609,73.157z"/>
	<g>
		
			<line fill="none" stroke="#FFFFFF" stroke-width="1.5674" stroke-miterlimit="10" x1="1358.309" y1="1110.2" x2="399.821" y2="859.283"/>
		
			<line fill="none" stroke="#FFFFFF" stroke-width="1.5674" stroke-miterlimit="10" x1="1250.676" y1="1128.889" x2="347.93" y2="890.018"/>
		
			<line fill="none" stroke="#FFFFFF" stroke-width="1.5674" stroke-miterlimit="10" x1="1000.259" y1="1110.2" x2="288.686" y2="923.921"/>
		
			<line fill="none" stroke="#FFFFFF" stroke-width="1.5674" stroke-miterlimit="10" x1="804.94" y1="1105.934" x2="235.089" y2="956.756"/>
		
			<line fill="none" stroke="#FFFFFF" stroke-width="1.5674" stroke-miterlimit="10" x1="642.208" y1="1110.2" x2="189.191" y2="991.859"/>
		
			<line fill="none" stroke="#FFFFFF" stroke-width="1.5674" stroke-miterlimit="10" x1="458.606" y1="1109.002" x2="119.866" y2="1020.325"/>
		
			<line fill="none" stroke="#FFFFFF" stroke-width="1.5674" stroke-miterlimit="10" x1="412.871" y1="1147.134" x2="74.131" y2="1058.457"/>
	</g>
	<g>
		
			<line fill="none" stroke="#FFFFFF" stroke-width="1.5674" stroke-miterlimit="10" x1="1202.328" y1="1034.111" x2="1064.435" y2="1125.46"/>
		
			<line fill="none" stroke="#FFFFFF" stroke-width="1.5674" stroke-miterlimit="10" x1="1276.393" y1="1039.43" x2="1137.91" y2="1131.17"/>
		
			<line fill="none" stroke="#FFFFFF" stroke-width="1.5674" stroke-miterlimit="10" x1="1336.37" y1="1054.081" x2="1247.704" y2="1112.819"/>
		
			<line fill="none" stroke="#FFFFFF" stroke-width="1.5674" stroke-miterlimit="10" x1="1392.84" y1="1071.056" x2="1346.611" y2="1101.681"/>
		
			<line fill="none" stroke="#FFFFFF" stroke-width="1.5674" stroke-miterlimit="10" x1="502.29" y1="845.252" x2="139.678" y2="1085.471"/>
		
			<line fill="none" stroke="#FFFFFF" stroke-width="1.5674" stroke-miterlimit="10" x1="559.564" y1="861.694" x2="193.627" y2="1104.116"/>
		
			<line fill="none" stroke="#FFFFFF" stroke-width="1.5674" stroke-miterlimit="10" x1="618.835" y1="876.813" x2="243.501" y2="1125.46"/>
		
			<line fill="none" stroke="#FFFFFF" stroke-width="1.5674" stroke-miterlimit="10" x1="677.822" y1="885.569" x2="312.239" y2="1131.509"/>
		
			<line fill="none" stroke="#FFFFFF" stroke-width="1.5674" stroke-miterlimit="10" x1="744.364" y1="902.423" x2="404.388" y2="1127.646"/>
		
			<line fill="none" stroke="#FFFFFF" stroke-width="1.5674" stroke-miterlimit="10" x1="802.903" y1="918.027" x2="502.29" y2="1117.174"/>
		
			<line fill="none" stroke="#FFFFFF" stroke-width="1.5674" stroke-miterlimit="10" x1="846.113" y1="943.786" x2="590.957" y2="1112.819"/>
		
			<line fill="none" stroke="#FFFFFF" stroke-width="1.5674" stroke-miterlimit="10" x1="920.221" y1="949.076" x2="657.493" y2="1123.125"/>
		
			<line fill="none" stroke="#FFFFFF" stroke-width="1.5674" stroke-miterlimit="10" x1="979.68" y1="964.071" x2="736.062" y2="1125.46"/>
		
			<line fill="none" stroke="#FFFFFF" stroke-width="1.5674" stroke-miterlimit="10" x1="1038.816" y1="979.279" x2="809.536" y2="1131.17"/>
		
			<line fill="none" stroke="#FFFFFF" stroke-width="1.5674" stroke-miterlimit="10" x1="1097.064" y1="995.076" x2="930.306" y2="1105.548"/>
		
			<line fill="none" stroke="#FFFFFF" stroke-width="1.5674" stroke-miterlimit="10" x1="1158.994" y1="1008.434" x2="997.731" y2="1115.266"/>
	</g>
	<polygon fill="#FF2E4C" points="-6.374,-0.556 448.952,-0.556 448.952,829.037 90.146,1082.308 -6.374,1083.687 	"/>
	<polygon fill="#FFC83E" points="448.915,-0.082 448.954,830.311 1444.121,1083.67 1969.926,1081.296 1974.391,-4.7 	"/>
	<g id="XMLID_25_">
		<g>
			<polygon points="900.422,170.877 900.422,375.839 784.578,360.003 784.578,165.415 			"/>
			<polygon points="900.422,-0.509 900.422,177.079 784.578,171.617 784.578,-0.509 			"/>
			<polygon points="773.021,170.578 773.021,359.066 772.983,359.369 644.663,341.83 644.663,164.529 			"/>
			<polygon points="773.021,-0.509 773.021,171.078 644.663,165.03 644.663,-0.509 			"/>
			<path fill="#FFFFFF" d="M670.54,209.578c6.23,2.356,11.521,8.927,13.087,19.072c0.057,0.371,0.588,0.373,0.648,0.003
				c1.649-10.078,6.851-16.71,13.065-19.074c0.322-0.123,0.264-0.597-0.079-0.634c-7.472-0.809-10.747-3.581-13.002-15.907
				c-0.065-0.353-0.586-0.354-0.645-0.001c-1.961,11.813-5.583,15.076-13.003,15.905C670.268,208.98,670.215,209.455,670.54,209.578
				z"/>
			<path fill="#FFC83E" d="M900.422,190.118v-10.696l-110.016-5.187c-3.263-0.154-5.829-2.844-5.829-6.11V-0.509h-11.557V167.01
				c0,3.491-2.917,6.274-6.405,6.11l-121.953-5.746v10.695l122.529,5.774c3.263,0.154,5.829,2.844,5.829,6.11v156.733
				c0,3.707-3.272,6.562-6.945,6.06l-121.413-16.595v10.696l255.759,34.955v-10.696l-110.556-15.112
				c-3.03-0.414-5.288-3.002-5.288-6.06V191.068c0-3.491,2.917-6.274,6.405-6.11L900.422,190.118z"/>
			<path fill="#FFFFFF" d="M900.422,446.962v46.778c0,0.602-0.542,1.059-1.135,0.957l-317.234-54.528
				c-0.927-0.159-1.109-1.412-0.265-1.828l62.601-30.858c0.178-0.088,0.379-0.119,0.575-0.089l254.632,38.608
				C900.071,446.074,900.422,446.482,900.422,446.962z"/>
			<polygon points="900.422,381.802 900.422,446.127 644.663,407.348 644.663,346.847 			"/>
			<path fill="#FFFFFF" d="M644.663,352.526v53.53c0,0.791-0.449,1.514-1.159,1.863l-61.401,30.266
				c-0.281,0.139-0.175,2.004-0.411,1.843c-1.176-0.804-2.585-2.481-2.585-3.707V1.545c0-1.148,0.931-2.078,2.078-2.078
				l61.401,0.023c1.147,0,2.077,0.93,2.077,2.078V165.03v10.696V341.83V352.526z"/>
		</g>
	</g>
	<path fill="#FFFFFF" d="M719.758,94.562c-5.045-2.964-15.45-7.744-21.151-9.06c-5.701-1.316-12.151-0.702-16.677,3.005
		c-3.212,2.63-5.128,6.496-6.744,10.32c-5.491,12.986-8.633,26.961-9.23,41.047c-0.103,2.444-0.091,5.046,1.202,7.122
		c1.614,2.592,4.78,3.692,7.728,4.49c9.435,2.552,19.199,3.888,28.974,3.964c2.31,0.018,4.798-0.093,6.629-1.5
		c1.704-1.309,2.479-3.465,3.17-5.5c2.299-6.772,5.261-24.974,5.261-24.974l-4.188,4.167c0,0-5.426,6.362-9.353,7.571
		c-3.927,1.209-8.332,0.817-11.959-1.113c-3.532-1.879-6.274-5.192-7.46-9.013c-1.706-5.495-0.131-11.676,3.28-16.309
		c3.411-4.633,8.468-7.847,13.822-9.953C708.415,96.72,714.106,95.636,719.758,94.562"/>
	<g>
		<path fill="#FF2636" d="M616.133,874.725l-135.386-30.37c-3.985-0.894-8.163-0.135-11.579,2.105l-50.858,33.344
			c-0.378,0.248-0.287,0.825,0.148,0.945l28.552,7.914l-0.004,0.003l-28.999-8.038c-0.335-0.093-0.665,0.159-0.665,0.506v4.056
			c0,0.85,0.571,1.594,1.392,1.814l20.737,5.557c0.438,0.117,0.531,0.698,0.152,0.946l-21.562,14.137
			c-0.448,0.294-0.719,0.794-0.719,1.33v3.829c0,0.884,0.594,1.657,1.447,1.886l146.665,39.305c1.366,0.366,2.824,0.017,3.877-0.928
			l48.528-43.569c0.981-0.88,1.541-2.136,1.541-3.454v-2.91l-0.247-24.676C619.133,876.663,617.883,875.118,616.133,874.725z
			 M599.668,897.857l14.231-12.789c0.338-0.304,0.876-0.064,0.876,0.391v15.981c0,0.336-0.312,0.586-0.64,0.512l-14.231-3.192
			C599.488,898.667,599.351,898.142,599.668,897.857z"/>
		<polygon fill="#FFFFFF" points="567.485,948.556 422.267,909.638 422.267,888.034 567.485,925.442 		"/>
		<polygon fill="#FFFFFF" points="617.201,904.163 567.485,948.556 567.485,925.442 617.388,882.203 		"/>
	</g>
	<g>
		<polygon points="489.653,835.441 432.482,872.924 582.626,914.541 634.539,867.942 		"/>
		<polygon points="582.783,919.39 432.482,879.11 432.482,872.924 582.626,914.541 		"/>
		<polygon points="634.539,872.924 582.783,919.39 582.626,914.541 634.539,867.942 		"/>
		<polygon fill="#FFC036" stroke="#FFC83E" stroke-width="1.3475" stroke-miterlimit="10" points="582.626,913.365 437.408,874.448 
			437.408,868.261 582.626,908.367 		"/>
		<polygon fill="#FBB441" stroke="#FFC83E" stroke-width="1.3475" stroke-miterlimit="10" points="632.342,868.973 582.626,913.365 
			582.626,908.367 632.529,863.481 		"/>
		<polygon points="489.653,824.234 432.482,861.717 582.626,903.334 634.539,856.736 		"/>
		<polygon points="582.783,908.183 432.482,867.904 432.482,861.717 582.626,903.334 		"/>
		<polygon points="634.539,861.717 582.783,908.183 582.626,903.334 634.539,856.736 		"/>
		<rect x="629.917" y="860.885" width="4.622" height="12.039"/>
	</g>
	<g>
		<polygon fill="#FF2636" points="607.578,881.074 462.851,881.074 483.48,832.397 582.499,832.397 		"/>
		<rect x="471.2" y="866.409" fill="#FFFFFF" width="127.331" height="8.553"/>
		<polygon fill="#FF2636" points="607.578,866.409 462.851,866.409 483.48,817.732 582.499,817.732 		"/>
		<rect x="462.851" y="866.409" fill="#FF2636" width="144.727" height="1.867"/>
		<rect x="462.85" y="880.958" fill="#FF2636" width="144.727" height="1.867"/>
	</g>
	<path d="M1660.115,754.834c-0.044-7.765-5.45-14.469-13.029-16.158c0,0-661.77-147.447-776.891-173.044
		c-10.851-2.413-22.201-0.339-31.498,5.755c-48.283,31.647-204.481,133.418-251.835,164.268
		c-8.573,5.585-13.734,15.118-13.734,25.349l0.001,336.638c0,1.382,1.103,2.511,2.484,2.542l20.318,0.463
		c1.426,0.033,2.6-1.115,2.6-2.541l0.47-315.649c0.01-6.552,6.241-11.305,12.562-9.583l216.441,58.951
		c5.292,1.41,8.968,6.21,8.952,11.686l-0.342,117.295c0,1.509,1.307,2.686,2.808,2.528c0,0,28.492,0.203,28.492-1.306V853.984
		c0-6.169,5.842-10.665,11.806-9.085l505.144,133.816c3.739,0.989,6.343,4.372,6.343,8.239v102.875c0,1.404,1.138,2.542,2.542,2.542
		h13.368h0.525h13.368c1.404,0,2.542-1.138,2.542-2.542v-99.854c0-11.517,4.931-22.483,13.547-30.125l180.656-161.818
		c4.747-4.252,12.288-0.876,12.278,5.497l-0.418,284.477c0,1.404,1.138,2.542,2.542,2.542h13.368h0.525h13.368
		c1.404,0,2.542-1.138,2.542-2.542L1660.115,754.834z"/>
	<path fill="#FFFFFF" d="M820.962,120.315c4.188,1.584,7.744,6,8.796,12.819c0.038,0.249,0.395,0.251,0.436,0.002
		c1.108-6.774,4.605-11.231,8.782-12.821c0.216-0.082,0.178-0.405-0.053-0.426c-8.08-0.729-7.482-7.023-8.739-13.133
		c-0.049-0.236-0.384-0.236-0.433,0c-1.247,6.005-1.963,12.944-8.74,13.132C820.778,119.894,820.744,120.233,820.962,120.315z"/>
	<path fill="#FFFFFF" d="M861.879,245.405c6.745,2.551,12.473,9.664,14.168,20.647c0.062,0.401,0.636,0.404,0.702,0.003
		c1.785-10.91,7.417-18.09,14.144-20.65c0.349-0.133,0.285-0.646-0.086-0.686c-8.089-0.876-11.661-7.216-14.075-20.942
		c-0.067-0.383-0.636-0.384-0.698-0.001c-2.438,14.992-6.044,20.042-14.076,20.94C861.584,244.758,861.528,245.272,861.879,245.405z
		"/>
	<path fill="#FFFFFF" d="M711.129,276.738c2.718,1.028,5.026,3.894,5.709,8.319c0.025,0.162,0.256,0.163,0.283,0.001
		c0.719-4.396,2.988-7.289,5.699-8.32c0.141-0.053,0.115-0.26-0.034-0.276c-3.259-0.353-4.638-2.458-5.671-7.679
		c-0.03-0.154-0.261-0.155-0.281,0c-0.689,5.221-2.435,7.316-5.672,7.678C711.01,276.477,710.987,276.684,711.129,276.738z"/>
	<path d="M913.31,485.382c-9.197-25.087-35.083-41.048-62.498-36.796c-26.935,4.178-46.542,26.505-48.326,52.602
		c-0.064,0.935-0.323,1.847-0.792,2.659l-38.996,67.445c-1.891,3.271-1.778,7.328,0.292,10.489l52.458,80.078
		c1.838,2.806,5.604,3.591,8.41,1.753l0,0c2.806-1.838,3.591-5.604,1.753-8.41l-46.842-71.506
		c-2.982-4.552-3.146-10.394-0.426-15.107l30.789-53.327c0.92-1.593,2.512-2.683,4.329-2.965l92.282-14.315
		C911.646,497.067,915.366,490.99,913.31,485.382z"/>
	<path fill="#FFFFFF" d="M1311.271,833.975l106.171,23.039c5.599,1.215,7.069,8.513,2.378,11.801l-105.006,73.595
		c-1.78,1.247-2.827,3.294-2.799,5.466l2.151,164.149c0.048,3.662-2.907,6.656-6.57,6.656h-108.262c-3.592,0-6.518-2.885-6.57-6.476
		l-2.836-198.155c-0.032-2.259,1.098-4.376,2.994-5.606l113.379-73.562C1307.771,833.931,1309.56,833.604,1311.271,833.975z"/>
	<ellipse fill="#FFFFFF" cx="898.587" cy="659.118" rx="91.9" ry="26.064"/>
	<polyline fill="#FFFFFF" points="990.645,659.273 899.794,498.816 830.818,509.598 806.844,659.273 	"/>
	<path fill="#FFFFFF" d="M847.252,220.2c2.742,1.037,5.071,3.929,5.76,8.393c0.025,0.163,0.259,0.164,0.285,0.001
		c0.726-4.435,3.015-7.354,5.75-8.395c0.142-0.054,0.116-0.263-0.035-0.279c-3.288-0.356-4.899-3.382-5.722-7.383
		c-0.032-0.155-0.252-0.155-0.284,0c-0.816,3.932-2.457,7.017-5.722,7.382C847.132,219.937,847.109,220.146,847.252,220.2z"/>
	<path fill="#FFFFFF" d="M791.349,401.587c4.315,1.632,7.98,6.183,9.064,13.21c0.04,0.257,0.407,0.258,0.449,0.002
		c1.142-6.98,4.745-11.573,9.049-13.211c0.223-0.085,0.183-0.413-0.055-0.439c-5.175-0.56-7.26-1.358-9.005-12.486
		c-0.039-0.246-0.405-0.245-0.447,0c-1.377,8.151-3.867,11.91-9.006,12.484C791.16,401.173,791.124,401.502,791.349,401.587z"/>
	<path fill="#FFFFFF" d="M665.073,372.437c2.158,0.816,3.99,3.092,4.532,6.605c0.02,0.128,0.204,0.129,0.225,0.001
		c0.571-3.49,2.372-5.787,4.525-6.606c0.112-0.042,0.091-0.207-0.027-0.219c-2.588-0.28-3.855-2.669-4.503-5.818
		c-0.025-0.122-0.198-0.122-0.223,0c-0.642,3.094-1.933,5.53-4.503,5.817C664.979,372.23,664.961,372.395,665.073,372.437z"/>
	<path fill="#FFFFFF" d="M807.856,324.556c5.1,1.929,9.431,7.307,10.712,15.611c0.047,0.303,0.481,0.305,0.531,0.002
		c1.349-8.249,5.608-13.678,10.694-15.613c0.264-0.1,0.216-0.488-0.065-0.519c-6.116-0.662-9.111-3.616-10.642-11.058
		c-0.059-0.288-0.468-0.288-0.528,0c-1.518,7.313-4.57,10.377-10.643,11.056C807.633,324.067,807.591,324.455,807.856,324.556z"/>
	<g>
		<path fill="none" stroke="#FFFFFF" stroke-width="3.0367" stroke-miterlimit="10" d="M1269.398,708.822
			c12.365,16.187,29.545,28.649,48.771,35.379c4.072,1.425,8.476,2.607,12.658,1.548c4.183-1.059,7.892-5.116,7.1-9.357
			c-1.289-6.903-12.272-6.781-16.757-1.377s-4.904,12.976-7.042,19.665c-4.703,14.718-18.029,25.224-32.239,31.292
			c-14.21,6.068-29.645,8.557-44.49,12.843c-14.845,4.286-29.774,10.85-39.453,22.894c-3.103,3.861-5.69,8.799-4.484,13.603
			c1.205,4.804,7.97,7.951,11.369,4.349c4.196-4.448-2.168-11.925-8.279-11.689c-6.111,0.236-11.268,4.42-17.013,6.517
			c-8.797,3.211-24.741,7.91-34.031,6.73c-14.629-1.859-2.389-31.029-16.518-33.46c-11.55-1.987-29.365,8.073-28.53,21.391"/>
		<g>
			<path fill="#FFFFFF" d="M1100.459,829.15c-8.909-0.393-13.154,7.515-16.379,13.219s-3.657,13.015-0.702,18.863
				c2.955,5.848,9.368,9.907,15.915,9.628c6.238-0.266,12.022-4.391,14.806-9.979s2.688-12.4,0.27-18.156
				C1111.95,836.969,1106.696,829.425,1100.459,829.15z"/>
			<g>
				<path fill="#FFFFFF" d="M1100.459,827.73c-8.043-0.253-12.977,5.834-16.632,12.205c-2.194,3.825-3.748,7.747-3.85,12.219
					c-0.104,4.57,1.258,9.13,4.073,12.749c5.344,6.869,14.763,9.382,22.609,5.402c8.321-4.222,12.022-13.604,10.611-22.554
					c-0.745-4.731-3.013-9.266-5.91-13.045C1108.67,831.197,1105.063,828.024,1100.459,827.73c-1.825-0.117-1.818,2.723,0,2.84
					c3.402,0.217,6.165,2.773,8.215,5.283c2.231,2.732,4.066,6.029,5.106,9.404c2.331,7.566,0.453,16.406-6.206,21.172
					c-6.27,4.488-14.477,3.711-19.928-1.723c-5.809-5.79-6.09-14.942-2.205-21.859c3.321-5.914,7.353-12.518,15.018-12.277
					C1102.287,830.627,1102.285,827.787,1100.459,827.73z"/>
			</g>
		</g>
		<g>
			<g>
				<path fill="#FF2E4C" d="M1081.94,849.48c5.776-2.202,12.011-3.933,18.243-3.06c5.808,0.814,10.948,3.816,15.649,7.166
					c1.491,1.062,2.911-1.399,1.433-2.452c-4.996-3.56-10.485-6.643-16.646-7.497c-6.651-0.922-13.249,0.746-19.435,3.104
					C1079.495,847.387,1080.228,850.133,1081.94,849.48L1081.94,849.48z"/>
			</g>
		</g>
		<g>
			<g>
				<path fill="#FF2E4C" d="M1100.208,844.634c0.428-4.62,0.856-9.24,1.284-13.86c0.062-0.665,0.123-1.33,0.185-1.995
					c0.071-0.765-0.703-1.42-1.42-1.42c-0.827,0-1.349,0.653-1.42,1.42c-0.428,4.62-0.856,9.24-1.284,13.86
					c-0.062,0.665-0.123,1.33-0.185,1.995c-0.071,0.765,0.703,1.42,1.42,1.42C1099.615,846.054,1100.137,845.401,1100.208,844.634
					L1100.208,844.634z"/>
			</g>
		</g>
	</g>
	<g>
		<path fill="#F92D45" stroke="#FF2E4C" stroke-width="1.3475" stroke-miterlimit="10" d="M1175.346,783.237l-180.714-54.87
			c-2.264-0.687-2.649-3.729-0.628-4.959l87.173-53.051l189.621,54.315l-87.393,57.403
			C1181.024,783.639,1178.071,784.065,1175.346,783.237z"/>
		
			<line fill="none" stroke="#FFFFFF" stroke-width="2.1331" stroke-linecap="round" stroke-linejoin="round" stroke-miterlimit="10" x1="1079.932" y1="680.87" x2="1240.683" y2="732.222"/>
		
			<line fill="none" stroke="#FFFFFF" stroke-width="2.1331" stroke-linecap="round" stroke-linejoin="round" stroke-miterlimit="10" x1="1068.483" y1="689.212" x2="1229.234" y2="740.563"/>
		
			<line fill="none" stroke="#FFFFFF" stroke-width="2.1331" stroke-linecap="round" stroke-linejoin="round" stroke-miterlimit="10" x1="1056.605" y1="696.421" x2="1217.356" y2="747.772"/>
		
			<line fill="none" stroke="#FFFFFF" stroke-width="2.1331" stroke-linecap="round" stroke-linejoin="round" stroke-miterlimit="10" x1="1045.066" y1="705.274" x2="1205.817" y2="756.625"/>
		
			<path fill="none" stroke="#FFFFFF" stroke-width="2.1331" stroke-linecap="round" stroke-linejoin="round" stroke-miterlimit="10" d="
			M1124.112,760.712l-60.318-19.194c-2.152-0.685-2.44-3.612-0.463-4.703l16.008-8.832c0.616-0.34,1.345-0.413,2.017-0.201
			l60.169,18.994c2.14,0.676,2.449,3.577,0.498,4.688l-15.86,9.032C1125.541,760.851,1124.797,760.93,1124.112,760.712z"/>
		<path fill="#F92D45" stroke="#FF2E4C" stroke-width="1.3475" stroke-miterlimit="10" d="M1265.116,616.903l-180.085-48.203
			c-2.858-0.765-5.653,1.42-5.6,4.379l1.746,97.278l189.621,54.315V624.306C1270.798,620.837,1268.468,617.8,1265.116,616.903z"/>
		<path fill="#FFFFFF" d="M1256.034,627.232l-159.62-42.183c-2.776-0.733-5.481,1.394-5.422,4.265l1.447,70.539
			c0.038,1.858,1.26,3.483,3.034,4.035l158.173,49.255c2.781,0.866,5.604-1.212,5.604-4.124v-77.611
			C1259.249,629.447,1257.929,627.733,1256.034,627.232z"/>
		<circle cx="1175.062" cy="600.289" r="2.412"/>
		<polygon fill="#FFC83E" points="1063.779,681.022 1049.432,676.651 1054.88,673.336 1069.357,677.551 		"/>
		<polygon fill="#FFC83E" points="1049.432,676.651 1049.432,678.598 1061.48,682.344 1063.779,681.022 		"/>
	</g>
	<g>
		<path fill="#FFFFFF" d="M1570.326,528.067l-231.943-42.183c-3.264-0.594-5.62-3.46-5.57-6.776l5.666-379.758
			c0.063-4.192,3.874-7.324,7.998-6.574l231.943,42.183c3.264,0.594,5.62,3.46,5.57,6.776l-5.666,379.758
			C1578.261,525.685,1574.45,528.817,1570.326,528.067z"/>
		<path d="M1560.175,494.119l-211.087-38.39c-1.167-0.212-2.01-1.237-1.992-2.423l5.072-339.963c0.022-1.499,1.385-2.619,2.86-2.351
			l211.088,38.39c1.167,0.212,2.01,1.237,1.992,2.423l-5.072,339.963C1563.013,493.267,1561.65,494.387,1560.175,494.119z"/>
		<g>
			<g>
				<g>
					
						<path fill="none" stroke="#E01B39" stroke-width="1.8625" stroke-linecap="round" stroke-linejoin="round" stroke-miterlimit="10" d="
						M1381.506,163.18c0,0,13.975,27.444,29.928,5.443"/>
					
						<ellipse transform="matrix(0.9024 -0.4309 0.4309 0.9024 65.0506 617.8519)" fill="none" stroke="#FFFFFF" stroke-width="2.3697" stroke-linecap="round" stroke-linejoin="round" stroke-miterlimit="10" cx="1396.478" cy="165.322" rx="4.639" ry="5.598"/>
					
						<ellipse transform="matrix(0.9024 -0.4309 0.4309 0.9024 65.0506 617.8519)" fill="none" stroke="#E01B39" stroke-width="1.9644" stroke-linecap="round" stroke-linejoin="round" stroke-miterlimit="10" cx="1396.478" cy="165.322" rx="0.866" ry="1.044"/>
					
						<line fill="none" stroke="#FFFFFF" stroke-width="2.5219" stroke-linecap="round" stroke-linejoin="round" stroke-miterlimit="10" x1="1395.99" y1="180.494" x2="1395.919" y2="185.269"/>
					
						<line fill="none" stroke="#FFFFFF" stroke-width="2.5219" stroke-linecap="round" stroke-linejoin="round" stroke-miterlimit="10" x1="1407.287" y1="180.856" x2="1410.279" y2="184.785"/>
					
						<line fill="none" stroke="#FFFFFF" stroke-width="2.5219" stroke-linecap="round" stroke-linejoin="round" stroke-miterlimit="10" x1="1385.266" y1="176.851" x2="1382.173" y2="179.674"/>
					
						<path fill="none" stroke="#E01B39" stroke-width="2.0345" stroke-linecap="round" stroke-linejoin="round" stroke-miterlimit="10" d="
						M1379.71,156.987c5.692-6.721,18.98-17.108,34.213,7.329"/>
					
						<path fill="none" stroke="#E01B39" stroke-width="1.8625" stroke-linecap="round" stroke-linejoin="round" stroke-miterlimit="10" d="
						M1379.891,165.873c0,0,15.284-32.081,33.069,6.014"/>
				</g>
				<g>
					
						<path fill="none" stroke="#FFFFFF" stroke-width="1.8625" stroke-linecap="round" stroke-linejoin="round" stroke-miterlimit="10" d="
						M1444.396,177.605c0,0,15.284-32.081,33.069,6.014"/>
					
						<path fill="none" stroke="#FFFFFF" stroke-width="1.8625" stroke-linecap="round" stroke-linejoin="round" stroke-miterlimit="10" d="
						M1446.011,174.912c0,0,13.975,27.444,29.928,5.443"/>
					
						<ellipse transform="matrix(0.9024 -0.4309 0.4309 0.9024 66.2908 646.7911)" fill="none" stroke="#E01B39" stroke-width="2.3697" stroke-linecap="round" stroke-linejoin="round" stroke-miterlimit="10" cx="1460.984" cy="177.054" rx="4.639" ry="5.598"/>
					
						<ellipse transform="matrix(0.9024 -0.4309 0.4309 0.9024 66.2908 646.7911)" fill="none" stroke="#FFFFFF" stroke-width="1.9644" stroke-linecap="round" stroke-linejoin="round" stroke-miterlimit="10" cx="1460.984" cy="177.054" rx="0.866" ry="1.044"/>
					
						<line fill="none" stroke="#E01B39" stroke-width="2.5219" stroke-linecap="round" stroke-linejoin="round" stroke-miterlimit="10" x1="1460.496" y1="192.225" x2="1460.424" y2="197"/>
					
						<line fill="none" stroke="#E01B39" stroke-width="2.5219" stroke-linecap="round" stroke-linejoin="round" stroke-miterlimit="10" x1="1471.793" y1="192.587" x2="1474.785" y2="196.517"/>
					
						<line fill="none" stroke="#E01B39" stroke-width="2.5219" stroke-linecap="round" stroke-linejoin="round" stroke-miterlimit="10" x1="1449.771" y1="188.582" x2="1446.679" y2="191.405"/>
					
						<path fill="none" stroke="#FFFFFF" stroke-width="2.0345" stroke-linecap="round" stroke-linejoin="round" stroke-miterlimit="10" d="
						M1444.216,168.719c5.692-6.721,18.98-17.108,34.213,7.329"/>
				</g>
				<g>
					
						<path fill="none" stroke="#E01B39" stroke-width="1.8625" stroke-linecap="round" stroke-linejoin="round" stroke-miterlimit="10" d="
						M1510.517,186.644c0,0,13.975,27.444,29.927,5.443"/>
					
						<ellipse transform="matrix(0.9024 -0.4309 0.4309 0.9024 67.5311 675.7303)" fill="none" stroke="#FFFFFF" stroke-width="2.3697" stroke-linecap="round" stroke-linejoin="round" stroke-miterlimit="10" cx="1525.49" cy="188.785" rx="4.639" ry="5.598"/>
					
						<ellipse transform="matrix(0.9024 -0.4309 0.4309 0.9024 67.5311 675.7303)" fill="none" stroke="#E01B39" stroke-width="1.9644" stroke-linecap="round" stroke-linejoin="round" stroke-miterlimit="10" cx="1525.49" cy="188.785" rx="0.866" ry="1.044"/>
					
						<line fill="none" stroke="#FFFFFF" stroke-width="2.5219" stroke-linecap="round" stroke-linejoin="round" stroke-miterlimit="10" x1="1525.001" y1="203.957" x2="1524.93" y2="208.732"/>
					
						<line fill="none" stroke="#FFFFFF" stroke-width="2.5219" stroke-linecap="round" stroke-linejoin="round" stroke-miterlimit="10" x1="1536.298" y1="204.319" x2="1539.29" y2="208.249"/>
					
						<line fill="none" stroke="#FFFFFF" stroke-width="2.5219" stroke-linecap="round" stroke-linejoin="round" stroke-miterlimit="10" x1="1514.277" y1="200.314" x2="1511.184" y2="203.137"/>
					
						<path fill="none" stroke="#E01B39" stroke-width="2.0345" stroke-linecap="round" stroke-linejoin="round" stroke-miterlimit="10" d="
						M1508.722,180.451c5.692-6.721,18.98-17.108,34.213,7.329"/>
					
						<path fill="none" stroke="#E01B39" stroke-width="1.8625" stroke-linecap="round" stroke-linejoin="round" stroke-miterlimit="10" d="
						M1508.902,189.337c0,0,15.284-32.081,33.069,6.014"/>
				</g>
			</g>
			<g>
				<g>
					
						<path fill="none" stroke="#FFFFFF" stroke-width="1.8625" stroke-linecap="round" stroke-linejoin="round" stroke-miterlimit="10" d="
						M1378.967,227.794c0,0,15.284-32.081,33.069,6.014"/>
					
						<path fill="none" stroke="#FFFFFF" stroke-width="1.8625" stroke-linecap="round" stroke-linejoin="round" stroke-miterlimit="10" d="
						M1380.582,225.101c0,0,13.975,27.444,29.927,5.443"/>
					
						<ellipse transform="matrix(0.9024 -0.4309 0.4309 0.9024 38.28 623.4967)" fill="none" stroke="#E01B39" stroke-width="2.3697" stroke-linecap="round" stroke-linejoin="round" stroke-miterlimit="10" cx="1395.554" cy="227.243" rx="4.639" ry="5.598"/>
					
						<ellipse transform="matrix(0.9024 -0.4309 0.4309 0.9024 38.28 623.4967)" fill="none" stroke="#FFFFFF" stroke-width="1.9644" stroke-linecap="round" stroke-linejoin="round" stroke-miterlimit="10" cx="1395.554" cy="227.243" rx="0.866" ry="1.044"/>
					
						<line fill="none" stroke="#E01B39" stroke-width="2.5219" stroke-linecap="round" stroke-linejoin="round" stroke-miterlimit="10" x1="1395.066" y1="242.414" x2="1394.995" y2="247.189"/>
					
						<line fill="none" stroke="#E01B39" stroke-width="2.5219" stroke-linecap="round" stroke-linejoin="round" stroke-miterlimit="10" x1="1406.363" y1="242.776" x2="1409.355" y2="246.706"/>
					
						<line fill="none" stroke="#E01B39" stroke-width="2.5219" stroke-linecap="round" stroke-linejoin="round" stroke-miterlimit="10" x1="1384.342" y1="238.771" x2="1381.249" y2="241.594"/>
					
						<path fill="none" stroke="#FFFFFF" stroke-width="2.0345" stroke-linecap="round" stroke-linejoin="round" stroke-miterlimit="10" d="
						M1378.787,218.908c5.692-6.721,18.98-17.108,34.213,7.329"/>
				</g>
				<g>
					
						<path fill="none" stroke="#E01B39" stroke-width="1.8625" stroke-linecap="round" stroke-linejoin="round" stroke-miterlimit="10" d="
						M1444.953,236.808c0,0,13.975,27.444,29.927,5.443"/>
					
						<ellipse transform="matrix(0.9024 -0.4309 0.4309 0.9024 39.5177 652.3758)" fill="none" stroke="#FFFFFF" stroke-width="2.3697" stroke-linecap="round" stroke-linejoin="round" stroke-miterlimit="10" cx="1459.926" cy="238.95" rx="4.639" ry="5.598"/>
					
						<ellipse transform="matrix(0.9024 -0.4309 0.4309 0.9024 39.5177 652.3758)" fill="none" stroke="#E01B39" stroke-width="1.9644" stroke-linecap="round" stroke-linejoin="round" stroke-miterlimit="10" cx="1459.926" cy="238.95" rx="0.866" ry="1.044"/>
					
						<line fill="none" stroke="#FFFFFF" stroke-width="2.5219" stroke-linecap="round" stroke-linejoin="round" stroke-miterlimit="10" x1="1459.438" y1="254.122" x2="1459.366" y2="258.896"/>
					
						<line fill="none" stroke="#FFFFFF" stroke-width="2.5219" stroke-linecap="round" stroke-linejoin="round" stroke-miterlimit="10" x1="1470.735" y1="254.483" x2="1473.727" y2="258.413"/>
					
						<line fill="none" stroke="#FFFFFF" stroke-width="2.5219" stroke-linecap="round" stroke-linejoin="round" stroke-miterlimit="10" x1="1448.714" y1="250.478" x2="1445.621" y2="253.301"/>
					
						<path fill="none" stroke="#E01B39" stroke-width="2.0345" stroke-linecap="round" stroke-linejoin="round" stroke-miterlimit="10" d="
						M1443.158,230.615c5.692-6.721,18.98-17.108,34.213,7.329"/>
					
						<path fill="none" stroke="#E01B39" stroke-width="1.8625" stroke-linecap="round" stroke-linejoin="round" stroke-miterlimit="10" d="
						M1443.339,239.501c0,0,15.284-32.081,33.069,6.014"/>
				</g>
				<g>
					
						<path fill="none" stroke="#FFFFFF" stroke-width="1.8625" stroke-linecap="round" stroke-linejoin="round" stroke-miterlimit="10" d="
						M1507.71,251.208c0,0,15.284-32.081,33.069,6.014"/>
					
						<path fill="none" stroke="#FFFFFF" stroke-width="1.8625" stroke-linecap="round" stroke-linejoin="round" stroke-miterlimit="10" d="
						M1509.325,248.515c0,0,13.975,27.444,29.927,5.443"/>
					
						<ellipse transform="matrix(0.9024 -0.4309 0.4309 0.9024 40.7553 681.2548)" fill="none" stroke="#E01B39" stroke-width="2.3697" stroke-linecap="round" stroke-linejoin="round" stroke-miterlimit="10" cx="1524.297" cy="250.657" rx="4.639" ry="5.598"/>
					
						<ellipse transform="matrix(0.9024 -0.4309 0.4309 0.9024 40.7553 681.2548)" fill="none" stroke="#FFFFFF" stroke-width="1.9644" stroke-linecap="round" stroke-linejoin="round" stroke-miterlimit="10" cx="1524.297" cy="250.657" rx="0.866" ry="1.044"/>
					
						<line fill="none" stroke="#E01B39" stroke-width="2.5219" stroke-linecap="round" stroke-linejoin="round" stroke-miterlimit="10" x1="1523.809" y1="265.829" x2="1523.738" y2="270.604"/>
					
						<line fill="none" stroke="#E01B39" stroke-width="2.5219" stroke-linecap="round" stroke-linejoin="round" stroke-miterlimit="10" x1="1535.106" y1="266.191" x2="1538.098" y2="270.12"/>
					
						<line fill="none" stroke="#E01B39" stroke-width="2.5219" stroke-linecap="round" stroke-linejoin="round" stroke-miterlimit="10" x1="1513.085" y1="262.186" x2="1509.992" y2="265.009"/>
					
						<path fill="none" stroke="#FFFFFF" stroke-width="2.0345" stroke-linecap="round" stroke-linejoin="round" stroke-miterlimit="10" d="
						M1507.53,242.322c5.692-6.721,18.98-17.108,34.213,7.329"/>
				</g>
			</g>
			<g>
				<g>
					
						<path fill="none" stroke="#E01B39" stroke-width="1.8625" stroke-linecap="round" stroke-linejoin="round" stroke-miterlimit="10" d="
						M1376.378,286.425c0,0,13.975,27.444,29.927,5.443"/>
					
						<ellipse transform="matrix(0.9024 -0.4309 0.4309 0.9024 11.4463 627.6699)" fill="none" stroke="#FFFFFF" stroke-width="2.3697" stroke-linecap="round" stroke-linejoin="round" stroke-miterlimit="10" cx="1391.35" cy="288.566" rx="4.639" ry="5.598"/>
					
						<ellipse transform="matrix(0.9024 -0.4309 0.4309 0.9024 11.4463 627.6699)" fill="none" stroke="#E01B39" stroke-width="1.9644" stroke-linecap="round" stroke-linejoin="round" stroke-miterlimit="10" cx="1391.35" cy="288.566" rx="0.866" ry="1.044"/>
					
						<line fill="none" stroke="#FFFFFF" stroke-width="2.5219" stroke-linecap="round" stroke-linejoin="round" stroke-miterlimit="10" x1="1390.862" y1="303.738" x2="1390.791" y2="308.513"/>
					
						<line fill="none" stroke="#FFFFFF" stroke-width="2.5219" stroke-linecap="round" stroke-linejoin="round" stroke-miterlimit="10" x1="1402.159" y1="304.1" x2="1405.151" y2="308.03"/>
					
						<line fill="none" stroke="#FFFFFF" stroke-width="2.5219" stroke-linecap="round" stroke-linejoin="round" stroke-miterlimit="10" x1="1380.138" y1="300.095" x2="1377.045" y2="302.918"/>
					
						<path fill="none" stroke="#E01B39" stroke-width="2.0345" stroke-linecap="round" stroke-linejoin="round" stroke-miterlimit="10" d="
						M1374.582,280.232c5.692-6.721,18.98-17.108,34.213,7.329"/>
					
						<path fill="none" stroke="#E01B39" stroke-width="1.8625" stroke-linecap="round" stroke-linejoin="round" stroke-miterlimit="10" d="
						M1374.763,289.118c0,0,15.284-32.081,33.069,6.014"/>
				</g>
				<g>
					
						<path fill="none" stroke="#FFFFFF" stroke-width="1.8625" stroke-linecap="round" stroke-linejoin="round" stroke-miterlimit="10" d="
						M1439.268,300.849c0,0,15.284-32.081,33.069,6.014"/>
					
						<path fill="none" stroke="#FFFFFF" stroke-width="1.8625" stroke-linecap="round" stroke-linejoin="round" stroke-miterlimit="10" d="
						M1440.883,298.156c0,0,13.975,27.444,29.928,5.443"/>
					
						<ellipse transform="matrix(0.9024 -0.4309 0.4309 0.9024 12.6865 656.6091)" fill="none" stroke="#E01B39" stroke-width="2.3697" stroke-linecap="round" stroke-linejoin="round" stroke-miterlimit="10" cx="1455.856" cy="300.298" rx="4.639" ry="5.598"/>
					
						<ellipse transform="matrix(0.9024 -0.4309 0.4309 0.9024 12.6865 656.6091)" fill="none" stroke="#FFFFFF" stroke-width="1.9644" stroke-linecap="round" stroke-linejoin="round" stroke-miterlimit="10" cx="1455.856" cy="300.298" rx="0.866" ry="1.044"/>
					
						<line fill="none" stroke="#E01B39" stroke-width="2.5219" stroke-linecap="round" stroke-linejoin="round" stroke-miterlimit="10" x1="1455.367" y1="315.47" x2="1455.296" y2="320.245"/>
					
						<line fill="none" stroke="#E01B39" stroke-width="2.5219" stroke-linecap="round" stroke-linejoin="round" stroke-miterlimit="10" x1="1466.664" y1="315.832" x2="1469.656" y2="319.761"/>
					
						<line fill="none" stroke="#E01B39" stroke-width="2.5219" stroke-linecap="round" stroke-linejoin="round" stroke-miterlimit="10" x1="1444.643" y1="311.827" x2="1441.551" y2="314.65"/>
					
						<path fill="none" stroke="#FFFFFF" stroke-width="2.0345" stroke-linecap="round" stroke-linejoin="round" stroke-miterlimit="10" d="
						M1439.088,291.963c5.692-6.721,18.98-17.108,34.213,7.329"/>
				</g>
				<g>
					
						<path fill="none" stroke="#E01B39" stroke-width="1.8625" stroke-linecap="round" stroke-linejoin="round" stroke-miterlimit="10" d="
						M1505.389,309.888c0,0,13.975,27.444,29.928,5.443"/>
					
						<ellipse transform="matrix(0.9024 -0.4309 0.4309 0.9024 13.9268 685.5483)" fill="none" stroke="#FFFFFF" stroke-width="2.3697" stroke-linecap="round" stroke-linejoin="round" stroke-miterlimit="10" cx="1520.361" cy="312.03" rx="4.639" ry="5.598"/>
					
						<ellipse transform="matrix(0.9024 -0.4309 0.4309 0.9024 13.9268 685.5483)" fill="none" stroke="#E01B39" stroke-width="1.9644" stroke-linecap="round" stroke-linejoin="round" stroke-miterlimit="10" cx="1520.361" cy="312.03" rx="0.866" ry="1.044"/>
					
						<line fill="none" stroke="#FFFFFF" stroke-width="2.5219" stroke-linecap="round" stroke-linejoin="round" stroke-miterlimit="10" x1="1519.873" y1="327.201" x2="1519.802" y2="331.976"/>
					
						<line fill="none" stroke="#FFFFFF" stroke-width="2.5219" stroke-linecap="round" stroke-linejoin="round" stroke-miterlimit="10" x1="1531.17" y1="327.563" x2="1534.162" y2="331.493"/>
					
						<line fill="none" stroke="#FFFFFF" stroke-width="2.5219" stroke-linecap="round" stroke-linejoin="round" stroke-miterlimit="10" x1="1509.149" y1="323.558" x2="1506.056" y2="326.381"/>
					
						<path fill="none" stroke="#E01B39" stroke-width="2.0345" stroke-linecap="round" stroke-linejoin="round" stroke-miterlimit="10" d="
						M1503.594,303.695c5.692-6.721,18.98-17.108,34.213,7.329"/>
					
						<path fill="none" stroke="#E01B39" stroke-width="1.8625" stroke-linecap="round" stroke-linejoin="round" stroke-miterlimit="10" d="
						M1503.774,312.581c0,0,15.284-32.081,33.069,6.014"/>
				</g>
			</g>
			<g>
				<g>
					
						<path fill="none" stroke="#FFFFFF" stroke-width="1.8625" stroke-linecap="round" stroke-linejoin="round" stroke-miterlimit="10" d="
						M1373.839,351.038c0,0,15.284-32.081,33.069,6.014"/>
					
						<path fill="none" stroke="#FFFFFF" stroke-width="1.8625" stroke-linecap="round" stroke-linejoin="round" stroke-miterlimit="10" d="
						M1375.454,348.345c0,0,13.975,27.444,29.927,5.443"/>
					
						<ellipse transform="matrix(0.9024 -0.4309 0.4309 0.9024 -15.3243 633.3147)" fill="none" stroke="#E01B39" stroke-width="2.3697" stroke-linecap="round" stroke-linejoin="round" stroke-miterlimit="10" cx="1390.426" cy="350.487" rx="4.639" ry="5.598"/>
					
						<ellipse transform="matrix(0.9024 -0.4309 0.4309 0.9024 -15.3243 633.3147)" fill="none" stroke="#FFFFFF" stroke-width="1.9644" stroke-linecap="round" stroke-linejoin="round" stroke-miterlimit="10" cx="1390.426" cy="350.487" rx="0.866" ry="1.044"/>
					
						<line fill="none" stroke="#E01B39" stroke-width="2.5219" stroke-linecap="round" stroke-linejoin="round" stroke-miterlimit="10" x1="1389.938" y1="365.659" x2="1389.867" y2="370.434"/>
					
						<line fill="none" stroke="#E01B39" stroke-width="2.5219" stroke-linecap="round" stroke-linejoin="round" stroke-miterlimit="10" x1="1401.235" y1="366.021" x2="1404.227" y2="369.95"/>
					
						<line fill="none" stroke="#E01B39" stroke-width="2.5219" stroke-linecap="round" stroke-linejoin="round" stroke-miterlimit="10" x1="1379.214" y1="362.016" x2="1376.121" y2="364.839"/>
					
						<path fill="none" stroke="#FFFFFF" stroke-width="2.0345" stroke-linecap="round" stroke-linejoin="round" stroke-miterlimit="10" d="
						M1373.658,342.152c5.692-6.721,18.98-17.108,34.213,7.329"/>
				</g>
				<g>
					
						<path fill="none" stroke="#E01B39" stroke-width="1.8625" stroke-linecap="round" stroke-linejoin="round" stroke-miterlimit="10" d="
						M1439.825,360.052c0,0,13.975,27.444,29.927,5.443"/>
					
						<ellipse transform="matrix(0.9024 -0.4309 0.4309 0.9024 -14.0867 662.1938)" fill="none" stroke="#FFFFFF" stroke-width="2.3697" stroke-linecap="round" stroke-linejoin="round" stroke-miterlimit="10" cx="1454.798" cy="362.194" rx="4.639" ry="5.598"/>
					
						<ellipse transform="matrix(0.9024 -0.4309 0.4309 0.9024 -14.0867 662.1938)" fill="none" stroke="#E01B39" stroke-width="1.9644" stroke-linecap="round" stroke-linejoin="round" stroke-miterlimit="10" cx="1454.798" cy="362.194" rx="0.866" ry="1.044"/>
					
						<line fill="none" stroke="#FFFFFF" stroke-width="2.5219" stroke-linecap="round" stroke-linejoin="round" stroke-miterlimit="10" x1="1454.309" y1="377.366" x2="1454.238" y2="382.141"/>
					
						<line fill="none" stroke="#FFFFFF" stroke-width="2.5219" stroke-linecap="round" stroke-linejoin="round" stroke-miterlimit="10" x1="1465.606" y1="377.728" x2="1468.598" y2="381.657"/>
					
						<line fill="none" stroke="#FFFFFF" stroke-width="2.5219" stroke-linecap="round" stroke-linejoin="round" stroke-miterlimit="10" x1="1443.585" y1="373.723" x2="1440.492" y2="376.546"/>
					
						<path fill="none" stroke="#E01B39" stroke-width="2.0345" stroke-linecap="round" stroke-linejoin="round" stroke-miterlimit="10" d="
						M1438.03,353.86c5.692-6.721,18.98-17.108,34.213,7.329"/>
					
						<path fill="none" stroke="#E01B39" stroke-width="1.8625" stroke-linecap="round" stroke-linejoin="round" stroke-miterlimit="10" d="
						M1438.21,362.746c0,0,15.284-32.081,33.069,6.014"/>
				</g>
				<g>
					
						<path fill="none" stroke="#FFFFFF" stroke-width="1.8625" stroke-linecap="round" stroke-linejoin="round" stroke-miterlimit="10" d="
						M1502.582,374.453c0,0,15.284-32.081,33.069,6.014"/>
					
						<path fill="none" stroke="#FFFFFF" stroke-width="1.8625" stroke-linecap="round" stroke-linejoin="round" stroke-miterlimit="10" d="
						M1504.197,371.76c0,0,13.975,27.444,29.928,5.443"/>
					
						<ellipse transform="matrix(0.9024 -0.4309 0.4309 0.9024 -12.849 691.0728)" fill="none" stroke="#E01B39" stroke-width="2.3697" stroke-linecap="round" stroke-linejoin="round" stroke-miterlimit="10" cx="1519.169" cy="373.901" rx="4.639" ry="5.598"/>
					
						<ellipse transform="matrix(0.9024 -0.4309 0.4309 0.9024 -12.849 691.0728)" fill="none" stroke="#FFFFFF" stroke-width="1.9644" stroke-linecap="round" stroke-linejoin="round" stroke-miterlimit="10" cx="1519.169" cy="373.901" rx="0.866" ry="1.044"/>
					
						<line fill="none" stroke="#E01B39" stroke-width="2.5219" stroke-linecap="round" stroke-linejoin="round" stroke-miterlimit="10" x1="1518.681" y1="389.073" x2="1518.609" y2="393.848"/>
					
						<line fill="none" stroke="#E01B39" stroke-width="2.5219" stroke-linecap="round" stroke-linejoin="round" stroke-miterlimit="10" x1="1529.978" y1="389.435" x2="1532.97" y2="393.365"/>
					
						<line fill="none" stroke="#E01B39" stroke-width="2.5219" stroke-linecap="round" stroke-linejoin="round" stroke-miterlimit="10" x1="1507.957" y1="385.43" x2="1504.864" y2="388.253"/>
					
						<path fill="none" stroke="#FFFFFF" stroke-width="2.0345" stroke-linecap="round" stroke-linejoin="round" stroke-miterlimit="10" d="
						M1502.401,365.567c5.692-6.721,18.98-17.108,34.213,7.329"/>
				</g>
			</g>
			<g>
				<g>
					
						<path fill="none" stroke="#E01B39" stroke-width="1.8625" stroke-linecap="round" stroke-linejoin="round" stroke-miterlimit="10" d="
						M1374.262,410.217c0,0,13.975,27.444,29.927,5.443"/>
					
						<ellipse transform="matrix(0.9024 -0.4309 0.4309 0.9024 -42.1001 638.8392)" fill="none" stroke="#FFFFFF" stroke-width="2.3697" stroke-linecap="round" stroke-linejoin="round" stroke-miterlimit="10" cx="1389.234" cy="412.359" rx="4.639" ry="5.598"/>
					
						<ellipse transform="matrix(0.9024 -0.4309 0.4309 0.9024 -42.1001 638.8392)" fill="none" stroke="#E01B39" stroke-width="1.9644" stroke-linecap="round" stroke-linejoin="round" stroke-miterlimit="10" cx="1389.234" cy="412.359" rx="0.866" ry="1.044"/>
					
						<line fill="none" stroke="#FFFFFF" stroke-width="2.5219" stroke-linecap="round" stroke-linejoin="round" stroke-miterlimit="10" x1="1388.746" y1="427.53" x2="1388.674" y2="432.305"/>
					
						<line fill="none" stroke="#FFFFFF" stroke-width="2.5219" stroke-linecap="round" stroke-linejoin="round" stroke-miterlimit="10" x1="1400.043" y1="427.892" x2="1403.035" y2="431.822"/>
					
						<line fill="none" stroke="#FFFFFF" stroke-width="2.5219" stroke-linecap="round" stroke-linejoin="round" stroke-miterlimit="10" x1="1378.022" y1="423.887" x2="1374.929" y2="426.71"/>
					
						<path fill="none" stroke="#E01B39" stroke-width="2.0345" stroke-linecap="round" stroke-linejoin="round" stroke-miterlimit="10" d="
						M1372.466,404.024c5.692-6.721,18.98-17.108,34.213,7.329"/>
					
						<path fill="none" stroke="#E01B39" stroke-width="1.8625" stroke-linecap="round" stroke-linejoin="round" stroke-miterlimit="10" d="
						M1372.647,412.91c0,0,15.284-32.081,33.069,6.014"/>
				</g>
				<g>
					
						<path fill="none" stroke="#FFFFFF" stroke-width="1.8625" stroke-linecap="round" stroke-linejoin="round" stroke-miterlimit="10" d="
						M1437.152,424.642c0,0,15.284-32.081,33.069,6.014"/>
					
						<path fill="none" stroke="#FFFFFF" stroke-width="1.8625" stroke-linecap="round" stroke-linejoin="round" stroke-miterlimit="10" d="
						M1438.767,421.949c0,0,13.975,27.444,29.928,5.443"/>
					
						<ellipse transform="matrix(0.9024 -0.4309 0.4309 0.9024 -40.8598 667.7784)" fill="none" stroke="#E01B39" stroke-width="2.3697" stroke-linecap="round" stroke-linejoin="round" stroke-miterlimit="10" cx="1453.74" cy="424.09" rx="4.639" ry="5.598"/>
					
						<ellipse transform="matrix(0.9024 -0.4309 0.4309 0.9024 -40.8598 667.7784)" fill="none" stroke="#FFFFFF" stroke-width="1.9644" stroke-linecap="round" stroke-linejoin="round" stroke-miterlimit="10" cx="1453.74" cy="424.09" rx="0.866" ry="1.044"/>
					
						<line fill="none" stroke="#E01B39" stroke-width="2.5219" stroke-linecap="round" stroke-linejoin="round" stroke-miterlimit="10" x1="1453.251" y1="439.262" x2="1453.18" y2="444.037"/>
					
						<line fill="none" stroke="#E01B39" stroke-width="2.5219" stroke-linecap="round" stroke-linejoin="round" stroke-miterlimit="10" x1="1464.548" y1="439.624" x2="1467.54" y2="443.554"/>
					
						<line fill="none" stroke="#E01B39" stroke-width="2.5219" stroke-linecap="round" stroke-linejoin="round" stroke-miterlimit="10" x1="1442.527" y1="435.619" x2="1439.434" y2="438.442"/>
					
						<path fill="none" stroke="#FFFFFF" stroke-width="2.0345" stroke-linecap="round" stroke-linejoin="round" stroke-miterlimit="10" d="
						M1436.972,415.756c5.692-6.721,18.98-17.108,34.213,7.329"/>
				</g>
				<g>
					
						<path fill="none" stroke="#E01B39" stroke-width="1.8625" stroke-linecap="round" stroke-linejoin="round" stroke-miterlimit="10" d="
						M1503.273,433.68c0,0,13.975,27.444,29.928,5.443"/>
					
						<ellipse transform="matrix(0.9024 -0.4309 0.4309 0.9024 -39.6196 696.7177)" fill="none" stroke="#FFFFFF" stroke-width="2.3697" stroke-linecap="round" stroke-linejoin="round" stroke-miterlimit="10" cx="1518.245" cy="435.822" rx="4.639" ry="5.598"/>
					
						<ellipse transform="matrix(0.9024 -0.4309 0.4309 0.9024 -39.6196 696.7177)" fill="none" stroke="#E01B39" stroke-width="1.9644" stroke-linecap="round" stroke-linejoin="round" stroke-miterlimit="10" cx="1518.245" cy="435.822" rx="0.866" ry="1.044"/>
					
						<line fill="none" stroke="#FFFFFF" stroke-width="2.5219" stroke-linecap="round" stroke-linejoin="round" stroke-miterlimit="10" x1="1517.757" y1="450.994" x2="1517.686" y2="455.769"/>
					
						<line fill="none" stroke="#FFFFFF" stroke-width="2.5219" stroke-linecap="round" stroke-linejoin="round" stroke-miterlimit="10" x1="1529.054" y1="451.356" x2="1532.046" y2="455.285"/>
					
						<line fill="none" stroke="#FFFFFF" stroke-width="2.5219" stroke-linecap="round" stroke-linejoin="round" stroke-miterlimit="10" x1="1507.033" y1="447.351" x2="1503.94" y2="450.174"/>
					
						<path fill="none" stroke="#E01B39" stroke-width="2.0345" stroke-linecap="round" stroke-linejoin="round" stroke-miterlimit="10" d="
						M1501.477,427.487c5.692-6.721,18.98-17.108,34.213,7.329"/>
					
						<path fill="none" stroke="#E01B39" stroke-width="1.8625" stroke-linecap="round" stroke-linejoin="round" stroke-miterlimit="10" d="
						M1501.658,436.373c0,0,15.284-32.081,33.069,6.014"/>
				</g>
			</g>
		</g>
	</g>
	<circle fill="#CCCCCC" cx="1575.71" cy="143.124" r="2.743"/>
	<circle fill="#CCCCCC" cx="1346.531" cy="101.96" r="2.743"/>
	<g>
		<path fill="#FFFFFF" d="M1320.052,588.617l-43.937-9.89c-0.72-0.162-1.231-0.801-1.231-1.539v-51.819
			c0-1.011,0.937-1.761,1.923-1.539l43.937,9.89c0.72,0.162,1.231,0.801,1.231,1.539v51.819
			C1321.975,588.089,1321.038,588.839,1320.052,588.617z"/>
		<path d="M1312.668,573.818l-30.095-6.775c-1.682-0.379-2.877-1.872-2.877-3.596v-29.911c0-2.362,2.191-4.115,4.496-3.596
			l30.095,6.775c1.682,0.379,2.877,1.872,2.877,3.596v29.911C1317.164,572.584,1314.973,574.337,1312.668,573.818z"/>
	</g>
	<g>
		<path fill="#FFFFFF" d="M1351.698,627.056l-44.504-10.018c-0.59-0.133-1.01-0.657-1.01-1.262v-52.401
			c0-0.829,0.769-1.444,1.578-1.262l44.504,10.018c0.59,0.133,1.01,0.657,1.01,1.262v52.401
			C1353.275,626.623,1352.506,627.238,1351.698,627.056z"/>
		<path d="M1343.988,612.184l-30.128-6.782c-1.675-0.377-2.864-1.864-2.864-3.581v-29.944c0-2.352,2.181-4.097,4.476-3.581
			l30.128,6.782c1.674,0.377,2.864,1.864,2.864,3.581v29.944C1348.464,610.955,1346.282,612.7,1343.988,612.184z"/>
	</g>
	<g>
		<path fill="#FFFFFF" d="M1174.477,407.045l-140.449-26.272c-3.009-0.563-5.191-3.19-5.192-6.251l-0.069-245.74
			c-0.001-3.983,3.616-6.987,7.531-6.255l140.449,26.272c3.009,0.563,5.191,3.19,5.192,6.251l0.069,245.74
			C1182.009,404.773,1178.392,407.777,1174.477,407.045z"/>
		
			<path fill="#FFFFFF" stroke="#1D1D1B" stroke-width="2.6717" stroke-linecap="round" stroke-linejoin="round" stroke-miterlimit="10" d="
			M1172.088,356.723l-0.041-144.086c-8.243-1.542-14.928-10.316-14.93-19.597l-104.709-19.587
			c0.003,9.281-6.678,15.555-14.921,14.013l0.041,144.086c8.243,1.542,14.928,10.316,14.93,19.597l104.709,19.587
			C1157.165,361.455,1163.845,355.181,1172.088,356.723z"/>
		<path fill="#FF2E4C" d="M1065.245,297.586c-0.948-0.005-1.855-0.075-2.721-0.203c-11.112-1.643-15.555-12.85-17.058-19.327
			c-1.62-6.981,0.471-20.44,11.046-22.09c1.726-0.27,3.299-0.233,4.728,0.027c6.77,1.232,10.288,7.484,11.456,10.022
			c0.129,0.281,0.23,0.516,0.303,0.694l4.756,17.634C1077.575,285.634,1075.63,297.642,1065.245,297.586z"/>
		<path fill="#FF2E4C" d="M1147.63,311.749c-10.391-3.832-12.091-16.843-12.17-17.497l4.513-15.078
			c0.039-0.089,0.113-0.249,0.222-0.463c0.921-1.793,4.387-7.338,11.472-5.874c1.341,0.277,2.813,0.805,4.422,1.658
			c10.273,5.446,12.312,19.278,10.742,25.471c-1.447,5.707-5.709,14.894-16.345,12.622
			C1149.581,312.394,1148.63,312.117,1147.63,311.749z"/>
		<g>
			<path fill="#1D1D1B" d="M1098.146,306.096c-2.255-0.969-4.43-0.112-6.445-1.801c-2.389-2.003-9.195-6.178-10.035-9.295
				l-2.945-10.919c-0.179,1.29-2.124,13.298-12.509,13.242c-0.531-0.003-1.048-0.028-1.553-0.071
				c-0.088-0.236-0.18-0.441-0.267-0.61c-0.178-0.347-0.334-0.554-0.393-0.627l-1.456,1.487c0,0-0.01-0.012-0.028-0.036
				c0,0.001,0.031,0.045,0.078,0.135c0.314,0.611,1.619,3.996-3.562,10.692l-0.357,0.461l0.207,0.66
				c0.053,0.169,1.335,4.155,4.87,6.331c2.555,1.574,5.556,1.776,8.932,0.605c2.427,3.158,6.52,4.75,8.948,4.334
				c5.575-2.019,8.129-4.745,16.535-4.54c8.406,0.205,17.078,3.078,17.078,3.078l0.174,0.041c6.621,2.261,6.515,4.845,13.672,10.41
				c1.415,1.466,7.14,4.05,10.049,1.098l1.291-1.795c3.376,2.434,6.378,3.355,8.932,2.737c3.534-0.854,4.814-4.362,4.867-4.51
				l0.207-0.583l-0.357-0.595c-5.759-9.591-3.514-12.107-3.491-12.132c-0.017,0.018-0.027,0.025-0.027,0.025l-0.729-1.015v-0.006
				c-0.002,0-0.004-0.001-0.005-0.001l-0.724-1.008c-0.086,0.074-0.305,0.288-0.527,0.693c-0.547-0.155-1.107-0.335-1.685-0.548
				c-10.699-3.945-12.448-17.341-12.53-18.015l-3.072,10.263c-1.678,5.605-13.525,4.625-15.395,4.84
				c-0.149,0.017-0.299,0.032-0.449,0.046L1098.146,306.096z"/>
		</g>
		
			<path fill="#FFFFFF" stroke="#1D1D1B" stroke-width="2.2659" stroke-linecap="round" stroke-linejoin="round" stroke-miterlimit="10" d="
			M1139.004,278.495l-4.647,15.524l-3.072,10.263c-1.678,5.605-5.253,9.939-10.029,12.157c-1.69,0.785-3.493,1.288-5.363,1.503
			c-0.15,0.017-0.299,0.032-0.449,0.046c-1.73,0.156-3.512,0.068-5.308-0.268l-3.656-0.684l-3.656-0.684
			c-1.579-0.295-3.146-0.778-4.676-1.436c-2.255-0.969-4.431-2.318-6.445-4.006c-2.389-2.003-4.478-4.422-6.18-7.12
			c-1.701-2.697-3.017-5.673-3.857-8.79l-2.945-10.919l-4.756-17.634l-0.034-0.125"/>
		<path fill="#1D1D1B" d="M1103.019,211.763c1.129-0.026,2.277,0.059,3.43,0.254c2.54,0.431,5.065,1.394,7.446,2.835
			c4.645,2.812,12.595,8.254,19.952,16.319c8.906,9.76,16.943,23.364,17.198,40.798c-7.295-1.507-10.864,4.202-11.812,6.048
			c-2.737-1.299-4.305-6.036-4.057-9.019c0.869,0.704,1.884,1.257,2.736,0.981c0.851-0.276,1.419-1.1,1.82-1.976
			c1.067-2.329,1.231-5.292,0.449-8.095c-0.783-2.804-2.502-5.417-4.699-7.139c-3.14-2.463-6.908-2.987-10.331-4.708
			c-3.949-1.986-7.404-5.614-9.696-9.873c-2.292-4.258-3.444-9.108-3.488-13.733l-10.882-1.655c-0.041,4.609-1.19,9.028-3.48,12.43
			c-2.29,3.401-5.743,5.737-9.691,6.246c-3.422,0.441-7.19-0.445-10.329,0.843c-2.196,0.901-3.915,2.871-4.695,5.381
			c-0.781,2.511-0.615,5.536,0.453,8.263c0.402,1.027,0.97,2.063,1.822,2.658c0.852,0.595,1.867,0.422,2.736,0.043
			c0.249,3.075-1.427,6.384-4.237,7.087c-1.167-2.538-4.686-8.79-11.456-10.022c0.208-17.485,8.318-28.161,17.283-34.629v-0.001
			c7.521-5.427,15.643-7.891,20.205-8.93C1100.778,211.925,1101.889,211.789,1103.019,211.763z"/>
		<path fill="none" stroke="#1D1D1B" stroke-width="2.2659" stroke-miterlimit="10" d="M1151.048,272.102
			c-0.001-0.044-0.001-0.088-0.002-0.131c-0.255-17.434-8.292-31.038-17.198-40.798c-7.358-8.065-15.308-13.507-19.952-16.319
			c-2.381-1.442-4.906-2.404-7.446-2.835c-1.153-0.196-2.3-0.281-3.43-0.254c-1.129,0.025-2.241,0.162-3.323,0.408
			c-4.562,1.039-12.685,3.503-20.205,8.93"/>
		<path fill="none" stroke="#1D1D1B" stroke-width="2.2659" stroke-miterlimit="10" d="M1139.233,278.018
			c-2.737-1.299-4.305-6.036-4.057-9.019c0.869,0.704,1.884,1.257,2.736,0.981c0.851-0.276,1.419-1.1,1.82-1.976
			c1.067-2.329,1.231-5.292,0.449-8.095c-0.783-2.804-2.502-5.417-4.699-7.139c-3.14-2.463-6.908-2.987-10.331-4.708
			c-3.949-1.986-7.404-5.614-9.696-9.873c-2.004-3.723-3.137-7.899-3.419-11.981c-0.072-1.038-0.875-1.875-1.904-2.031l-6.591-1.002
			c-1.292-0.197-2.457,0.746-2.582,2.047c-0.357,3.718-1.469,7.209-3.355,10.009c-2.29,3.401-5.743,5.737-9.691,6.246
			c-3.422,0.441-7.19-0.445-10.329,0.843c-2.196,0.901-3.915,2.871-4.695,5.381c-0.781,2.511-0.615,5.536,0.453,8.263
			c0.402,1.027,0.97,2.063,1.822,2.658c0.852,0.595,1.867,0.422,2.736,0.043c0.249,3.075-1.427,6.384-4.237,7.087"/>
		<path fill="none" stroke="#1D1D1B" stroke-width="2.2659" stroke-miterlimit="10" d="M1079.49,221.102
			c-8.964,6.468-17.075,17.144-17.283,34.629"/>
		<path fill="#1D1D1B" d="M1109.562,172.747l2.634,6.337c-0.065-0.07-5.002-5.325-14.866,5.034l5.619-11.651l3.489-7.235
			L1109.562,172.747z"/>
		<path fill="#1D1D1B" d="M1087.593,204.301c14.995-19.167,31.912-7.631,31.912-7.631l6.725,16.178c0,0-17.981-6.13-26.535-0.675
			c-4.562,1.039-12.685,3.503-20.205,8.93l8.103-16.799C1087.593,204.301,1087.593,204.301,1087.593,204.301z"/>
		<path fill="#FF2E4C" d="M1119.505,196.669c0,0-16.916-11.535-31.912,7.631l9.735-20.183c9.864-10.358,14.802-5.103,14.866-5.034
			c0.001,0.001,0.001,0.001,0.001,0.001L1119.505,196.669z"/>
		<path fill="#FF2E4C" d="M1126.23,212.847l7.617,18.326c-7.358-8.065-15.308-13.507-19.952-16.319
			c-2.381-1.442-4.906-2.404-7.446-2.835c-1.153-0.196-2.3-0.281-3.43-0.254c-1.129,0.025-2.241,0.162-3.323,0.408
			C1108.249,206.717,1126.23,212.847,1126.23,212.847z"/>
		<polyline fill="none" stroke="#1D1D1B" stroke-width="2.2659" stroke-miterlimit="10" points="1087.593,204.302 1079.49,221.101 
			1079.49,221.102 		"/>
		<path fill="none" stroke="#1D1D1B" stroke-width="1.4728" stroke-miterlimit="10" d="M1112.195,179.084
			c-0.065-0.07-5.002-5.325-14.866,5.034"/>
		
			<line fill="none" stroke="#1D1D1B" stroke-width="2.2659" stroke-miterlimit="10" x1="1112.196" y1="179.084" x2="1112.195" y2="179.084"/>
		<path fill="none" stroke="#1D1D1B" stroke-width="1.4728" stroke-miterlimit="10" d="M1119.505,196.669
			c0,0-16.916-11.535-31.912,7.631"/>
		<path fill="none" stroke="#1D1D1B" stroke-width="1.4728" stroke-miterlimit="10" d="M1126.23,212.847
			c0,0-17.981-6.13-26.535-0.675"/>
		<polyline fill="none" stroke="#1D1D1B" stroke-width="2.2659" stroke-miterlimit="10" points="1112.195,179.084 1109.562,172.747 
			1106.438,165.231 1102.948,172.466 1097.329,184.117 1087.593,204.301 		"/>
		<polyline fill="none" stroke="#1D1D1B" stroke-width="2.2659" stroke-miterlimit="10" points="1133.891,231.278 1133.847,231.172 
			1126.23,212.847 1119.505,196.669 1112.196,179.084 		"/>
		<path fill="none" stroke="#1D1D1B" stroke-width="2.2659" stroke-miterlimit="10" d="M1102.897,172.428l-3.627,1.584
			c-0.582,0.254-1.218-0.226-1.132-0.855l1.203-8.873c0.03-0.222-0.033-0.447-0.174-0.621l-5.886-7.283
			c-0.43-0.532-0.052-1.324,0.632-1.326l7.45-0.013c0.32-0.001,0.61-0.189,0.741-0.481l3.169-7.058
			c0.291-0.648,1.213-0.639,1.491,0.014l3.662,8.594c0.092,0.216,0.273,0.382,0.497,0.455l8.095,2.636
			c0.585,0.19,0.755,0.935,0.312,1.361l-5.583,5.358c-0.194,0.186-0.284,0.456-0.239,0.722l1.447,8.648
			c0.124,0.74-0.734,1.239-1.316,0.766l-4.077-3.309"/>
		
			<path fill="#FFFFFF" stroke="#1D1D1B" stroke-width="2.2659" stroke-linecap="round" stroke-linejoin="round" stroke-miterlimit="10" d="
			M1065.049,325.612c0,0,1.766,7.11-0.647,18.332c0,0,41.456,46.638,84.982,17.004c-2.42-12.127-0.75-18.639-0.75-18.639"/>
		
			<path fill="#FFFFFF" stroke="#1D1D1B" stroke-width="2.2659" stroke-linecap="round" stroke-linejoin="round" stroke-miterlimit="10" d="
			M1115.417,319.263c6.914,2.361,14.224,6.239,21.713,12.229c3.797,3.037,7.641,6.616,11.503,10.817
			c-43.525,29.635-83.584-16.697-83.584-16.697s4.029-2.972,10.888-5.589c5.689-2.171,13.326-4.096,22.228-3.879"/>
		<path fill="#1D1D1B" d="M1098.722,325.871c0,0,7.624,3.542,16.126,3.017l0.009,0.001c0.12,2.073,0.388,4.318,0.884,6.624
			c-6.017,2.019-11.986,0.877-17.908-3.35c0.495-2.121,0.761-4.265,0.88-6.294L1098.722,325.871z"/>
		<path fill="none" stroke="#1D1D1B" stroke-width="2.2659" stroke-miterlimit="10" d="M1098.079,314.529
			c0,0,0.026,0.134,0.069,0.387c0.047,0.281,0.115,0.709,0.189,1.258c0.269,1.998,0.618,5.611,0.376,9.695
			c-0.096,1.632-0.287,3.34-0.616,5.05c-0.145,0.755,0.144,1.543,0.788,1.963c4.992,3.251,10.017,4.312,15.076,3.137
			c0.999-0.232,1.622-1.21,1.449-2.222c-0.29-1.701-0.463-3.353-0.553-4.908c-0.25-4.258,0.117-7.797,0.386-9.667
			c0.084-0.583,0.158-1.004,0.201-1.234c0.025-0.134,0.04-0.203,0.04-0.203"/>
		<path fill="none" stroke="#1D1D1B" stroke-width="2.2659" stroke-miterlimit="10" d="M1098.722,325.871
			c0,0,7.624,3.542,16.126,3.017"/>
		<path fill="none" stroke="#FF2636" stroke-width="0.5665" stroke-miterlimit="10" d="M1066.682,328.875
			c0.815,4.151,1.585,8.147,2.366,12.183c0.464,2.396,0.932,4.807,1.416,7.271"/>
		<path fill="none" stroke="#FF2636" stroke-width="0.5665" stroke-miterlimit="10" d="M1065.634,343.666
			c1.28-0.748,2.381-1.643,3.415-2.608c1.807-1.686,3.408-3.587,5.398-5.293"/>
		<path fill="none" stroke="#FF2636" stroke-width="0.5665" stroke-miterlimit="10" d="M1074.446,335.765
			c0.296,3.06,0.968,6.302,1.739,9.541c0.767,3.226,1.633,6.449,2.324,9.488"/>
		<path fill="none" stroke="#FF2636" stroke-width="0.5665" stroke-miterlimit="10" d="M1070.465,348.329
			c2.011-0.966,3.859-2.026,5.72-3.023c2.276-1.221,4.571-2.346,7.209-3.093"/>
		<path fill="none" stroke="#FF2636" stroke-width="0.5665" stroke-miterlimit="10" d="M1083.394,342.213
			c0.659,2.652,1.516,5.556,2.395,8.488c1.091,3.64,2.215,7.322,3.033,10.614"/>
		<path fill="none" stroke="#FF2636" stroke-width="0.5665" stroke-miterlimit="10" d="M1078.509,354.794
			c2.671-1.243,4.959-2.687,7.28-4.093c2.06-1.248,4.147-2.467,6.554-3.489"/>
		<path fill="none" stroke="#FF2636" stroke-width="0.5665" stroke-miterlimit="10" d="M1092.342,347.212
			c0.649,2.696,1.718,5.679,2.873,8.673c1.346,3.49,2.809,6.995,3.861,10.079"/>
		<path fill="none" stroke="#FF2636" stroke-width="0.5665" stroke-miterlimit="10" d="M1088.822,361.315
			c2.2-1.758,4.284-3.612,6.393-5.43c2.021-1.742,4.065-3.45,6.255-5.01"/>
		<path fill="none" stroke="#FF2636" stroke-width="0.5665" stroke-miterlimit="10" d="M1101.47,350.875
			c1.337,2.529,2.898,5.184,4.448,7.872c1.99,3.451,3.963,6.959,5.421,10.331"/>
		<path fill="none" stroke="#FF2636" stroke-width="0.5665" stroke-miterlimit="10" d="M1099.076,365.964
			c2.42-2.304,4.618-4.77,6.842-7.217c1.757-1.933,3.531-3.854,5.443-5.675"/>
		<path fill="none" stroke="#FF2636" stroke-width="0.5665" stroke-miterlimit="10" d="M1111.361,353.072
			c1.562,2.566,3.436,5.255,5.378,7.908c2.138,2.921,4.36,5.797,6.343,8.412"/>
		<path fill="none" stroke="#FF2636" stroke-width="0.5665" stroke-miterlimit="10" d="M1111.392,369.086
			c2.094-2.594,3.717-5.351,5.347-8.107c1.591-2.69,3.187-5.38,5.232-7.912"/>
		<path fill="none" stroke="#FF2636" stroke-width="0.5665" stroke-miterlimit="10" d="M1121.971,353.067
			c1.589,2.176,3.536,4.559,5.492,6.946c2.046,2.497,4.101,5,5.763,7.277"/>
		<path fill="none" stroke="#FF2636" stroke-width="0.5665" stroke-miterlimit="10" d="M1123.082,369.392
			c1.615-2.936,2.991-6.165,4.381-9.378c1.245-2.88,2.502-5.747,3.949-8.379"/>
		<path fill="none" stroke="#FF2636" stroke-width="0.5665" stroke-miterlimit="10" d="M1131.412,351.635
			c1.299,2.143,3.061,4.395,4.887,6.582c1.753,2.1,3.566,4.14,5.085,5.966"/>
		<path fill="none" stroke="#FF2636" stroke-width="0.5665" stroke-miterlimit="10" d="M1133.226,367.291
			c1.035-2.927,2.054-6,3.073-9.074c1.048-3.163,2.097-6.329,3.162-9.341"/>
		<path fill="none" stroke="#FF2636" stroke-width="0.5665" stroke-miterlimit="10" d="M1139.461,348.876
			c1.347,2.117,2.92,4.285,4.56,6.369c1.379,1.754,2.806,3.449,4.184,5.002"/>
		<path fill="none" stroke="#FF2636" stroke-width="0.5665" stroke-miterlimit="10" d="M1141.383,364.183
			c0.718-2.745,1.668-5.829,2.637-8.938c1.128-3.626,2.282-7.287,3.119-10.488"/>
		<path fill="#1D1D1B" d="M1098.593,250.168l-1.143,4.664c-0.123,0.502-0.661,0.776-1.14,0.581
			c-2.493-1.017-9.569-3.674-13.999-3.037c-0.818,0.118-1.317-0.872-0.717-1.44c2.534-2.397,7.604-5.045,16.465-1.773
			C1098.462,249.312,1098.695,249.751,1098.593,250.168z"/>
		<path fill="#1D1D1B" d="M1115.462,251.804c8.275,0.152,13.185,4.255,15.784,7.501c0.563,0.703-0.193,1.663-1.016,1.295
			c-4.582-2.051-11.397-1.974-13.575-1.889c-0.408,0.016-0.762-0.26-0.852-0.659l-1.173-5.213
			C1114.511,252.31,1114.92,251.794,1115.462,251.804z"/>
		
			<ellipse transform="matrix(0.2418 -0.9703 0.9703 0.2418 546.5047 1302.7393)" fill="#FF2E4C" cx="1106.878" cy="301.66" rx="7.736" ry="15.856"/>
		<path fill="none" stroke="#1D1D1B" stroke-width="2.2659" stroke-linecap="round" stroke-miterlimit="10" d="M1100.21,299.886
			c0,0,6.327,7.039,13.345,2.288"/>
		<path fill="none" stroke="#1D1D1B" stroke-width="2.2659" stroke-linecap="round" stroke-miterlimit="10" d="M1097.093,301.034
			c0,0,10.423-7.651,19.684,4.504"/>
		<path fill="#1D1D1B" d="M1123.035,266.776c3.028,0.566,5.484,3.789,5.485,7.199c0.001,3.409-2.453,5.713-5.481,5.147
			c-3.028-0.566-5.483-3.789-5.484-7.198C1117.553,268.514,1120.007,266.209,1123.035,266.776z"/>
		<path fill="none" stroke="#1D1D1B" stroke-width="2.2659" stroke-miterlimit="10" d="M1117.554,271.923
			c0.001,3.409,2.456,6.632,5.484,7.198c3.028,0.566,5.482-1.738,5.481-5.147c-0.001-3.41-2.456-6.632-5.485-7.199
			C1120.007,266.209,1117.553,268.514,1117.554,271.923z"/>
		<path fill="#1D1D1B" d="M1112.214,243.451c0.001,3.41-2.453,5.714-5.481,5.148c-3.028-0.566-5.484-3.789-5.485-7.199
			c-0.001-3.409,2.453-5.713,5.481-5.147C1109.758,236.819,1112.213,240.042,1112.214,243.451z"/>
		<path fill="none" stroke="#1D1D1B" stroke-width="2.2659" stroke-miterlimit="10" d="M1101.249,241.4
			c0.001,3.41,2.456,6.632,5.485,7.199c3.028,0.566,5.482-1.738,5.481-5.148c-0.001-3.409-2.456-6.632-5.484-7.198
			C1103.702,235.687,1101.248,237.991,1101.249,241.4z"/>
		<path fill="#1D1D1B" d="M1089.714,260.876c3.028,0.566,5.483,3.789,5.484,7.198c0.001,3.41-2.453,5.714-5.481,5.148
			c-3.028-0.566-5.484-3.789-5.485-7.199C1084.232,262.614,1086.686,260.31,1089.714,260.876z"/>
		<path fill="none" stroke="#1D1D1B" stroke-width="2.2659" stroke-miterlimit="10" d="M1095.198,268.074
			c0.001,3.41-2.453,5.714-5.481,5.148c-3.028-0.566-5.484-3.789-5.485-7.199c-0.001-3.409,2.453-5.713,5.481-5.147
			C1092.742,261.442,1095.197,264.665,1095.198,268.074z"/>
		<path fill="#FF2E4C" d="M1113.792,280.973c0.001,2.588,2.888,2.973,1.869,5.841c-1.862,5.238-5.158,6.332-8.916,5.629
			c-3.634-0.68-6.838-2.752-8.732-8.389c-1.136-3.382,1.741-2.965,1.741-5.708c-0.002-7.313,3.139-12.652,7.015-11.927
			C1110.646,267.145,1113.79,273.66,1113.792,280.973z"/>
		<path fill="none" stroke="#1D1D1B" stroke-width="1.1606" stroke-linecap="round" stroke-miterlimit="10" d="M1108.251,288.323
			c0.008-0.018,0.935-1.815,3.332-1.057"/>
		<path fill="none" stroke="#1D1D1B" stroke-width="1.1606" stroke-linecap="round" stroke-miterlimit="10" d="M1112.127,289.443
			c0.085-0.06,2.443-1.575-0.001-4.58"/>
		<path fill="none" stroke="#1D1D1B" stroke-width="1.1606" stroke-linecap="round" stroke-miterlimit="10" d="M1105.394,287.861
			c0,0-0.786-2.157-3.332-2.304"/>
		<path fill="none" stroke="#1D1D1B" stroke-width="1.1606" stroke-linecap="round" stroke-miterlimit="10" d="M1101.184,287.469
			c0,0-2.371-2.553-0.001-4.58"/>
		
			<path fill="none" stroke="#FF2636" stroke-width="0.5665" stroke-linecap="round" stroke-linejoin="round" stroke-miterlimit="10" d="
			M1125.913,285.112c-0.386,1.791-1.107,3.321-2.073,4.659c-1.091-1.798-1.805-3.609-2.076-5.435
			C1123.146,284.228,1124.53,284.487,1125.913,285.112z"/>
		
			<path fill="none" stroke="#FF2636" stroke-width="0.5665" stroke-linecap="round" stroke-linejoin="round" stroke-miterlimit="10" d="
			M1091.793,278.673c-0.386,1.792-1.107,3.322-2.073,4.66c-1.091-1.798-1.805-3.609-2.076-5.436
			C1089.027,277.79,1090.41,278.049,1091.793,278.673z"/>
		<path fill="none" stroke="#1D1D1B" stroke-width="2.2659" stroke-miterlimit="10" d="M1074.112,266.825
			c0,0-0.048-0.136-0.147-0.378c-0.073-0.178-0.173-0.413-0.303-0.694c-1.167-2.538-4.686-8.79-11.456-10.022
			c-1.428-0.26-3.002-0.296-4.728-0.027c-10.576,1.65-12.666,15.108-11.046,22.09c1.503,6.477,5.946,17.684,17.058,19.327
			c0.866,0.128,1.772,0.198,2.721,0.203c10.385,0.055,12.33-11.953,12.509-13.242c0.01-0.074,0.015-0.112,0.015-0.112"/>
		<path fill="none" stroke="#1D1D1B" stroke-width="2.2659" stroke-linecap="round" stroke-miterlimit="10" d="M1052.312,265.713
			c1.271-3.067,4.142-4.985,7.311-4.885c3.169,0.101,6.524,2.218,8.544,5.39c1.403,2.205,2.125,5.244,0.91,7.115
			c-0.567,0.873-1.468,1.366-2.351,1.815c-0.883,0.45-1.798,0.899-2.423,1.716c-0.625,0.817-0.893,2.108-0.363,3.212
			c0.654,1.36,2.151,1.859,3.429,2.039c1.278,0.18,2.686,0.283,3.711,1.337c1.156,1.187,1.314,3.234,0.61,4.519
			c-0.704,1.284-2.067,1.895-3.461,2.048c-3.122,0.342-6.659-1.477-8.854-4.555c-2.194-3.077-2.949-7.278-1.89-10.513
			s3.887-5.364,7.076-5.327"/>
		<path fill="none" stroke="#1D1D1B" stroke-width="2.2659" stroke-miterlimit="10" d="M1138.969,278.577
			c0,0,0.011-0.029,0.035-0.082c0.04-0.091,0.116-0.257,0.229-0.477c0.948-1.846,4.517-7.555,11.812-6.048
			c1.381,0.285,2.896,0.829,4.552,1.707c10.577,5.607,12.676,19.848,11.06,26.224c-1.49,5.876-5.878,15.334-16.828,12.995
			c-0.933-0.199-1.912-0.484-2.942-0.864c-10.699-3.945-12.448-17.341-12.53-18.015c-0.002-0.018-0.003-0.027-0.003-0.027"/>
		<path fill="none" stroke="#1D1D1B" stroke-width="2.2659" stroke-linecap="round" stroke-miterlimit="10" d="M1160.771,285.62
			c-1.273-3.543-4.146-6.536-7.315-7.62c-3.169-1.085-6.524-0.223-8.542,2.194c-1.403,1.68-2.122,4.45-0.907,6.775
			c0.568,1.085,1.469,1.915,2.353,2.695c0.883,0.78,1.798,1.572,2.424,2.623s0.894,2.442,0.364,3.348
			c-0.652,1.116-2.15,1.054-3.428,0.757c-1.278-0.298-2.686-0.721-3.711-0.052c-1.155,0.755-1.312,2.744-0.607,4.291
			c0.705,1.548,2.068,2.669,3.462,3.343c3.122,1.51,6.659,1.014,8.852-1.243c2.193-2.257,2.946-6.176,1.885-9.807
			c-1.061-3.631-3.89-6.818-7.08-7.975"/>
	</g>
	<g>
		<path fill="#FFFFFF" d="M1210.18,452.695l-43.364-9.762c-0.85-0.191-1.454-0.947-1.454-1.818v-51.232
			c0-1.194,1.108-2.08,2.273-1.818l43.364,9.761c0.85,0.191,1.454,0.947,1.454,1.818v51.232
			C1212.453,452.071,1211.345,452.957,1210.18,452.695z"/>
		<path d="M1204.117,438.193l-31.69-7.134c-1.318-0.297-2.255-1.467-2.255-2.819v-31.545c0-1.852,1.717-3.225,3.524-2.819
			l31.69,7.134c1.318,0.297,2.255,1.467,2.255,2.819v31.545C1207.641,437.226,1205.924,438.6,1204.117,438.193z"/>
	</g>
	
		<line fill="none" stroke="#000000" stroke-width="0.9465" stroke-linecap="round" stroke-miterlimit="10" x1="1181.938" y1="155.05" x2="1182.01" y2="390.829"/>
	<g>
		<path fill="#FFC83E" d="M1375.785,808.312l1.162,55.223c0.067,3.161,1.779,6.06,4.53,7.617
			c8.187,4.631,26.664,12.104,46.447,0.101c2.7-1.638,4.369-4.555,4.369-7.714v-55.336c0-1.18-0.577-2.287-1.555-2.946
			c-5.946-4.007-28.172-16.543-53.32-0.021C1376.383,805.916,1375.759,807.074,1375.785,808.312z"/>
		
			<path fill="none" stroke="#FFFFFF" stroke-width="2.695" stroke-linecap="round" stroke-linejoin="round" stroke-miterlimit="10" d="
			M1381.036,811.33c0,0,22.832,11.45,45.649,0"/>
		<path fill="none" stroke="#FFC83E" stroke-width="6.9283" stroke-miterlimit="10" d="M1427.703,820.627
			c4.415-4.931,12.545-5.457,18.177-1.981c5.632,3.475,8.767,10.192,8.993,16.807c0.239,7.013-2.747,14.287-8.479,18.333
			s-14.204,4.221-19.555-0.319"/>
	</g>
	<path fill="#E01B39" d="M684.184,402.692l10.716,41.522c0.629,2.436,2.404,4.404,4.76,5.287c7.488,2.806,23.618,7.609,41.676,0.118
		c2.35-0.975,4.005-3.127,4.474-5.627l9.158-41.7c0.709-3.788-1.487-7.504-5.144-8.722c-10.789-3.594-34.183-8.97-60.685-0.081
		C685.331,394.766,683.18,398.804,684.184,402.692z"/>
	
		<path fill="none" stroke="#FFFFFF" stroke-width="4.0425" stroke-linecap="round" stroke-linejoin="round" stroke-miterlimit="10" d="
		M694.549,401.364c0,0,29.474,6.583,49.941,0"/>
	<circle fill="#CCCCCC" cx="1174.311" cy="155.672" r="2.743"/>
	<circle fill="#CCCCCC" cx="1034.744" cy="128.811" r="2.743"/>
	<g>
		<path fill="#FFFFFF" d="M1143.546,514.638l-131.013-29.492c-1.903-0.428-3.255-2.119-3.255-4.069v-46.501
			c0-2.673,2.479-4.656,5.087-4.069l131.013,29.492c1.903,0.428,3.255,2.119,3.255,4.069v46.501
			C1148.634,513.242,1146.154,515.225,1143.546,514.638z"/>
	</g>
	<circle fill="#CCCCCC" cx="1076.182" cy="450.857" r="2.743"/>
	<g>
		<g>
			<path d="M1020.654,451.755c0.164,0.739-0.112,1.475-0.245,2.197c-0.124,0.67-0.202,1.33-0.124,2.009
				c0.161,1.408,1.027,2.668,2.46,3.012c1.328,0.319,2.771-0.146,3.75-1.077c1.052-1.002,1.536-2.42,1.952-3.772
				c-0.865,0.113-1.73,0.226-2.595,0.339c1.436,2.436,4.192,3.952,7.03,3.749c-0.473-0.473-0.947-0.947-1.42-1.42
				c-0.109,1.587,1.2,3.009,2.806,2.962c0.721-0.021,1.458-0.336,1.954-0.865c0.296-0.316,0.488-0.697,0.654-1.091
				c0.032-0.077,0.204-0.369,0.192-0.456c-0.049-0.336,0.847,0.352-0.384-0.005c-0.347-0.456-0.695-0.913-1.042-1.369
				c-0.111,1.221-0.229,2.441-0.335,3.663c-0.093,1.066,0.078,2.189,1.061,2.811c2.023,1.281,4.401-1.207,3.071-3.176
				c-1.017-1.506-3.479-0.087-2.452,1.433c0.022,0.033,0.428-0.719,0.439-0.726c0.482,0.497,0.71,0.602,0.683,0.316
				c-0.004-0.051-0.003-0.102,0.001-0.153c0.099-0.397,0.071-0.893,0.108-1.301c0.087-0.955,0.175-1.911,0.262-2.866
				c0.057-0.619-0.482-1.207-1.042-1.369c-1.132-0.328-2.216,0.269-2.794,1.254c-0.147,0.251-0.474,0.952-0.477,1.076
				c0.002-0.08,0.11,0.22,0.134-0.137c0.05-0.728-0.692-1.472-1.42-1.42c-1.869,0.134-3.618-0.713-4.578-2.342
				c-0.633-1.074-2.239-0.818-2.595,0.339c-0.247,0.804-0.482,1.689-1.045,2.338c-0.273,0.315-0.928,0.753-1.351,0.464
				c-0.46-0.315-0.194-1.323-0.104-1.758c0.241-1.16,0.445-2.235,0.184-3.412C1022.997,449.216,1020.259,449.971,1020.654,451.755
				L1020.654,451.755z"/>
		</g>
	</g>
	<g>
		<g>
			<path d="M1039.675,459.946c2.705,1.231,5.856,1.093,8.322-0.645c1.476-1.04,0.094-3.484-1.433-2.452
				c-2.124,1.436-2.152,4.483-0.185,6.085c2.26,1.842,5.158,1.058,7.525-0.104c-0.695-0.283-1.39-0.566-2.086-0.849
				c1.499,3.629,5.75,4.741,8.791,2.195c1.403-1.174-0.615-3.174-2.008-2.008c-1.288,1.079-3.388,0.65-4.045-0.942
				c-0.365-0.884-1.186-1.29-2.086-0.849c-1.107,0.543-2.505,1.165-3.744,0.682c-0.535-0.208-1.547-1.207-0.729-1.76
				c-0.478-0.817-0.955-1.635-1.433-2.452c-1.588,1.12-3.646,1.469-5.456,0.645c-0.703-0.32-1.52-0.195-1.943,0.509
				C1038.802,458.61,1038.978,459.629,1039.675,459.946L1039.675,459.946z"/>
		</g>
	</g>
	<g>
		<g>
			<path d="M1068.348,464.143c0.59,0.411,1.08,1.312,1.671,1.862c0.744,0.691,1.68,1.187,2.683,1.368
				c2.174,0.392,4.222-0.551,5.477-2.338c-0.865-0.365-1.73-0.729-2.595-1.094c-0.332,1.489,0.251,3.067,1.597,3.854
				c1.333,0.779,3.048,0.461,4.135-0.577c1.324-1.265-0.686-3.271-2.008-2.008c-0.167,0.16-0.005,0.054-0.204,0.143
				c0.154-0.069-0.229,0.053-0.242,0.055c0.252-0.031-0.265-0.033-0.011,0c-0.041-0.005-0.367-0.135-0.237-0.065
				c-0.245-0.132-0.344-0.416-0.292-0.647c0.359-1.612-1.675-2.405-2.595-1.094c-0.638,0.909-1.876,1.282-2.961,0.855
				c-0.528-0.208-0.929-0.623-1.308-1.086c-0.519-0.633-0.998-1.206-1.677-1.679c-0.63-0.438-1.577-0.115-1.943,0.509
				C1067.425,462.908,1067.717,463.704,1068.348,464.143L1068.348,464.143z"/>
		</g>
	</g>
	<g>
		<g>
			<path d="M1093.999,467.834c0.537,1.074,1.607,1.925,2.785,2.18c1.375,0.297,2.703-0.109,3.764-1.001
				c-0.791-0.46-1.582-0.921-2.373-1.381c-0.542,1.802-0.273,3.923,0.837,5.467c1.148,1.596,2.812,2.524,4.756,2.744
				c0.741,0.084,1.451-0.713,1.42-1.42c-0.038-0.841-0.626-1.33-1.42-1.42c0.324,0.037-0.199-0.043-0.259-0.057
				c-0.168-0.04-0.331-0.094-0.495-0.146c-0.379-0.121,0.219,0.122-0.138-0.054c-0.155-0.076-0.307-0.155-0.455-0.245
				c-0.044-0.026-0.471-0.32-0.243-0.146c-0.102-0.078-0.2-0.165-0.294-0.252c-0.127-0.118-0.24-0.246-0.36-0.37
				c-0.104-0.127-0.111-0.131-0.021-0.014c-0.039-0.052-0.076-0.105-0.112-0.158c-0.388-0.572-0.503-0.85-0.633-1.62
				c0.048,0.284-0.014-0.249-0.016-0.306c-0.004-0.137-0.003-0.275,0.004-0.412c0.005-0.091,0.012-0.183,0.022-0.274
				c-0.021,0.151-0.018,0.141,0.01-0.03c0.043-0.179,0.082-0.356,0.135-0.532c0.174-0.578-0.11-1.317-0.652-1.603
				c-0.594-0.314-1.217-0.201-1.721,0.222c0.192-0.161-0.214,0.126-0.266,0.156c-0.151,0.073-0.161,0.078-0.032,0.015
				c-0.085,0.029-0.171,0.054-0.258,0.075c-0.169,0.032-0.175,0.037-0.02,0.016c-0.089,0.009-0.179,0.013-0.268,0.013
				c-0.09,0-0.179-0.005-0.268-0.014c0.153,0.019,0.149,0.013-0.013-0.019c-0.083-0.021-0.164-0.047-0.244-0.076
				c0.142,0.064,0.138,0.06-0.01-0.012c-0.054-0.034-0.449-0.325-0.239-0.138c-0.042-0.038-0.387-0.41-0.21-0.181
				c-0.104-0.135-0.184-0.287-0.26-0.439c-0.333-0.666-1.327-0.906-1.943-0.509C1093.828,466.33,1093.644,467.122,1093.999,467.834
				L1093.999,467.834z"/>
		</g>
	</g>
	<g>
		<g>
			<path d="M1110.846,473.344c0.891-1.036,1.421,0.265,1.842,0.982c0.578,0.984,1.39,1.724,2.543,1.918
				c2.614,0.439,4.284-1.755,5.325-3.811c-0.534,0.217-1.069,0.435-1.603,0.652c3.005,0.916,6.01,1.832,9.016,2.748
				c2.76,0.841,5.544,1.667,8.426,0.93c1.769-0.452,1.019-3.192-0.755-2.738c-2.635,0.673-5.343-0.451-7.841-1.212
				c-2.697-0.822-5.394-1.644-8.091-2.466c-0.568-0.173-1.327,0.108-1.603,0.652c-0.4,0.79-1.06,2.433-2.155,2.461
				c-0.901,0.023-1.296-1.604-1.833-2.202c-1.392-1.551-3.927-1.494-5.278,0.078
				C1107.653,472.716,1109.653,474.733,1110.846,473.344L1110.846,473.344z"/>
		</g>
	</g>
	<g>
		<g>
			<path d="M1022.559,466.476c-0.631,1.44-1.123,2.919-1.385,4.472c-0.26,1.54-0.505,3.277,0.617,4.553
				c1.105,1.256,2.899,1.097,4.279,0.462c1.232-0.568,2.245-1.633,3.023-2.721c0.923-1.291,1.42-2.794,1.613-4.356
				c-0.946,0-1.893,0-2.839,0c0.018,0.466,0.035,0.933,0.053,1.399c0.028,0.741,0.633,1.455,1.42,1.42
				c0.745-0.033,1.45-0.625,1.42-1.42c-0.018-0.466-0.035-0.933-0.053-1.399c-0.028-0.741-0.633-1.455-1.42-1.42
				c-0.847,0.038-1.322,0.627-1.42,1.42c0.036-0.29-0.001-0.004-0.025,0.124c-0.021,0.111-0.044,0.221-0.069,0.331
				c-0.059,0.256-0.132,0.509-0.218,0.758c-0.043,0.125-0.093,0.246-0.137,0.37c0.083-0.233,0.016-0.037-0.036,0.075
				c-0.111,0.238-0.235,0.471-0.37,0.698c-0.125,0.21-0.26,0.414-0.404,0.612c-0.033,0.046-0.067,0.091-0.101,0.136
				c0.177-0.234,0.052-0.069,0.011-0.022c-0.086,0.099-0.171,0.2-0.26,0.297c-0.165,0.18-0.339,0.352-0.52,0.516
				c-0.098,0.088-0.201,0.17-0.3,0.256c-0.12,0.105,0.052-0.039,0.065-0.049c-0.061,0.044-0.121,0.09-0.183,0.133
				c-0.189,0.131-0.391,0.228-0.587,0.345c-0.148,0.089,0.101-0.044,0.096-0.034c-0.012,0.021-0.164,0.063-0.2,0.075
				c-0.116,0.04-0.234,0.074-0.354,0.101c-0.354,0.08,0.172,0.013-0.078,0.016c-0.027,0-0.293,0.016-0.297-0.002
				c-0.005-0.029,0.366,0.097,0.092,0.007c-0.035-0.012-0.101-0.039-0.137-0.039c-0.17-0.001,0.151,0.02,0.12,0.053
				c-0.002,0.002-0.164-0.086-0.165-0.098c-0.003-0.042,0.238,0.285,0.061,0.03c-0.029-0.042-0.092-0.163-0.022-0.02
				c0.109,0.222-0.085-0.301-0.017-0.049c0.066,0.243-0.04-0.232-0.047-0.233c0.009,0.001,0.022,0.282,0.013,0.111
				c-0.003-0.073-0.011-0.145-0.014-0.217c-0.009-0.237,0.004-0.475,0.027-0.711c0.008-0.081,0.017-0.162,0.026-0.244
				c0.001-0.012,0.029-0.237,0.009-0.084c-0.02,0.153,0.011-0.072,0.012-0.083c0.014-0.091,0.028-0.181,0.043-0.271
				c0.116-0.7,0.274-1.393,0.474-2.074c0.097-0.329,0.203-0.656,0.32-0.979c0.054-0.151,0.111-0.301,0.169-0.45
				c0.033-0.085,0.068-0.17,0.102-0.255c0.092-0.234-0.13,0.298,0.045-0.103c0.297-0.678,0.222-1.556-0.509-1.943
				C1023.887,465.642,1022.877,465.75,1022.559,466.476L1022.559,466.476z"/>
		</g>
	</g>
	<g>
		<g>
			<path d="M1033.144,471.494c-1,0.643-0.117-0.232-0.232,0.064c0.005-0.013,0.201,0.386,0.216,0.424
				c0.174,0.446,0.293,0.916,0.518,1.343c0.513,0.974,1.418,1.576,2.503,1.709c1.084,0.132,2.047-0.24,3.067-0.543
				c1.093-0.324,2.032-0.051,2.99,0.523c1.82,1.091,3.151,2.848,5.117,3.728c1.984,0.888,4.26,0.815,5.93-0.664
				c1.371-1.214-0.644-3.216-2.008-2.008c-1.474,1.306-3.66-0.354-4.794-1.313c-1.642-1.389-3.305-2.891-5.52-3.203
				c-1.148-0.162-2.146,0.105-3.231,0.449c-0.784,0.248-1.376,0.476-1.704-0.389c-0.352-0.928-0.628-1.763-1.461-2.38
				c-0.839-0.62-1.921-0.771-2.824-0.19C1030.179,470.028,1031.601,472.487,1033.144,471.494L1033.144,471.494z"/>
		</g>
	</g>
	<g>
		<g>
			<path d="M1062.3,481.018c0.049-0.014,0.117-0.02,0.162-0.042c-0.211,0.106-0.276,0.023-0.096,0.021
				c0.053-0.001,0.106,0.004,0.159,0.006c0.17,0.004-0.338-0.078-0.102-0.005c0.051,0.016,0.104,0.031,0.155,0.046
				c0.183,0.052-0.065-0.018-0.11-0.052c0.098,0.073,0.23,0.117,0.335,0.183c0.062,0.039,0.12,0.081,0.181,0.121
				c0.156,0.102-0.031-0.013-0.076-0.062c0.088,0.097,0.208,0.174,0.304,0.263c0.196,0.181,0.381,0.374,0.561,0.57
				c0.839,0.911,1.675,1.825,2.513,2.737c0.504,0.549,1.504,0.549,2.008,0c0.539-0.587,0.537-1.423,0-2.008
				c-0.917-0.999-1.812-2.024-2.756-2.996c-1.036-1.067-2.452-1.966-3.994-1.518c-0.713,0.207-1.23,1.01-0.992,1.746
				C1060.788,480.75,1061.536,481.24,1062.3,481.018L1062.3,481.018z"/>
		</g>
	</g>
	<g>
		<g>
			<path d="M1066.427,483.443c2.628,2.083,6.63,1.537,8.399-1.41c-0.817,0-1.635,0-2.452,0c1.338,1.982,3.922,2.663,6.03,1.472
				c1.375-0.777,0.459-3.109-1.094-2.595c-2.869,0.95-3.063,4.84-0.682,6.456c3.017,2.048,6.308-0.24,8.535-2.299
				c-0.791-0.46-1.582-0.921-2.373-1.381c-0.448,2.467,0.917,4.872,3.358,5.598c1.755,0.522,2.505-2.217,0.755-2.738
				c-0.868-0.258-1.544-1.174-1.375-2.105c0.249-1.372-1.282-2.39-2.373-1.381c-1.133,1.047-2.609,2.529-4.313,2.201
				c-0.469-0.09-0.981-0.349-1.05-0.869c-0.031-0.232,0.019-0.66,0.273-0.744c-0.365-0.865-0.729-1.73-1.094-2.595
				c-0.704,0.398-1.676,0.241-2.145-0.453c-0.591-0.875-1.878-0.956-2.452,0c-0.748,1.247-2.735,1.79-3.939,0.836
				c-0.605-0.48-1.415-0.58-2.008,0C1065.927,481.924,1065.828,482.968,1066.427,483.443L1066.427,483.443z"/>
		</g>
	</g>
	<g>
		<g>
			<path d="M1095.564,485.992c0.691,1.58,1.562,3.212,3.24,3.913c1.452,0.607,3.269,0.401,4.299-0.872
				c-0.573,0.074-1.147,0.148-1.72,0.222c2.339,1.232,5.172,1.149,7.337-0.426c-0.648-0.648-1.295-1.295-1.943-1.943
				c-0.765,1.512-1.46,3.267-0.588,4.898c0.674,1.26,2.069,1.991,3.48,1.566c1.651-0.497,2.377-2.128,2.684-3.679
				c0.176-0.891,0.674-3.849,2.228-3.228c1.011,0.404,0.107,3.094,0.169,3.976c0.101,1.428,0.76,2.823,2.205,3.298
				c1.483,0.487,2.95-0.267,3.97-1.338c0.755-0.792,1.58-2.981,2.836-2.981c-0.409-0.712-0.817-1.424-1.226-2.136
				c-1.897,2.942-0.508,7.339,2.84,8.515c3.55,1.246,7.274-1.664,7.518-5.246c0.095-1.397-2.014-1.945-2.646-0.717
				c-2.318,4.511,0.682,9.737,5.765,9.939c1.827,0.073,1.824-2.767,0-2.84c-2.878-0.114-4.637-3.091-3.313-5.666
				c-0.882-0.239-1.764-0.478-2.646-0.717c-0.119,1.746-2.218,3.23-3.89,2.514c-1.643-0.704-2.089-2.936-1.177-4.35
				c0.592-0.918-0.186-2.136-1.226-2.136c-1.281,0-2.333,0.604-3.167,1.553c-0.735,0.836-1.242,2.193-2.237,2.749
				c-1.247,0.695-0.653-1.936-0.582-2.514c0.154-1.249,0.088-2.574-0.767-3.577c-1.718-2.015-4.753-1.242-6.147,0.716
				c-0.83,1.166-1.011,2.471-1.323,3.826c-0.053,0.23-0.303,1.452-0.744,1.292c-0.669-0.242,0.305-2.028,0.436-2.285
				c0.581-1.147-0.7-2.846-1.943-1.943c-1.344,0.977-2.971,1.216-4.471,0.426c-0.51-0.269-1.319-0.274-1.72,0.222
				c-1.289,1.593-2.716-1.635-3.08-2.466C1097.286,482.888,1094.838,484.332,1095.564,485.992L1095.564,485.992z"/>
		</g>
	</g>
	<path d="M1249.556,892.743l-7.558-2.17c-0.273-0.078-0.275-0.464-0.003-0.545l7.536-2.246l94.574-0.477
		c1.37-0.007,2.486,1.098,2.493,2.468l0,0c0.007,1.37-1.098,2.486-2.468,2.493L1249.556,892.743z"/>
	<g>
		
			<ellipse transform="matrix(0.9438 -0.3306 0.3306 0.9438 -201.2366 304.2062)" fill="none" stroke="#FFC83E" stroke-width="4.2593" stroke-miterlimit="10" cx="793.809" cy="743.779" rx="15.571" ry="11.727"/>
		
			<ellipse transform="matrix(0.9438 -0.3306 0.3306 0.9438 -193.3612 318.441)" fill="none" stroke="#FFC83E" stroke-width="4.2593" stroke-miterlimit="10" cx="839.6" cy="727.741" rx="15.571" ry="11.727"/>
		<path fill="none" stroke="#FFC83E" stroke-width="4.2593" stroke-miterlimit="10" d="M808.345,738.212
			c0,0,3.97-7.974,16.086-7.573"/>
		<path fill="none" stroke="#FFC83E" stroke-width="4.2593" stroke-linecap="round" stroke-miterlimit="10" d="M849.513,717.311
			l-49.284-32.062c0,0-12.244-3.667-16.187,6.709"/>
		<path fill="none" stroke="#FFC83E" stroke-width="4.2593" stroke-linecap="round" stroke-miterlimit="10" d="M778.433,747.347
			l-44.073-38.916c0,0-10.407-4.809-15.823,4.88"/>
	</g>
	
		<line fill="none" stroke="#000000" stroke-width="0.9465" stroke-linecap="round" stroke-miterlimit="10" x1="1148.634" y1="462.917" x2="1148.634" y2="511.363"/>
	
		<line fill="none" stroke="#000000" stroke-width="0.9465" stroke-linecap="round" stroke-miterlimit="10" x1="1212.453" y1="399.645" x2="1212.453" y2="451.304"/>
	
		<line fill="none" stroke="#000000" stroke-width="0.9465" stroke-linecap="round" stroke-miterlimit="10" x1="1321.975" y1="535.346" x2="1321.975" y2="564.772"/>
	
		<line fill="none" stroke="#000000" stroke-width="0.9465" stroke-linecap="round" stroke-miterlimit="10" x1="1353.275" y1="573.707" x2="1353.275" y2="626.063"/>
	<g>
		<g>
			<path fill="#FFFFFF" d="M1461.4,607.248l-44.117-9.931c-0.678-0.153-1.16-0.755-1.16-1.451v-52.004
				c0-0.953,0.884-1.66,1.813-1.451l44.117,9.931c0.678,0.153,1.16,0.755,1.16,1.451v52.004
				C1463.213,606.751,1462.329,607.458,1461.4,607.248z"/>
			<path d="M1453.594,592.354l-29.584-6.659c-1.799-0.405-3.076-2.002-3.076-3.846v-29.386c0-2.526,2.343-4.401,4.808-3.846
				l29.584,6.659c1.799,0.405,3.076,2.002,3.076,3.846v29.386C1458.402,591.035,1456.059,592.909,1453.594,592.354z"/>
		</g>
		
			<line fill="none" stroke="#000000" stroke-width="0.9465" stroke-linecap="round" stroke-miterlimit="10" x1="1463.213" y1="553.953" x2="1463.213" y2="606.308"/>
	</g>
	
		<line fill="none" stroke="#000000" stroke-width="0.9465" stroke-linecap="round" stroke-miterlimit="10" x1="1584.049" y1="139.133" x2="1578.324" y2="522.842"/>
	<g>
		<path fill="#FFFFFF" d="M1916.995,729.494l-225.883-41.081c-3.06-0.556-5.288-3.215-5.301-6.325l-0.962-233.75
			c-0.017-4.039,3.637-7.101,7.611-6.378l232.404,42.267c3.127,0.569,5.375,3.329,5.299,6.506l-5.559,232.564
			C1924.51,727.261,1920.897,730.204,1916.995,729.494z"/>
	</g>
	<circle fill="#CCCCCC" cx="1694.871" cy="452.416" r="2.743"/>
	<g>
		<path fill="#FFFFFF" d="M2024.364,375.433l-330.402-45.638c-6.803-0.94-11.753-5.433-11.772-10.684l-1.448-404.085
			c-0.024-6.806,8.086-11.961,16.903-10.743l340.22,46.994c6.901,0.953,11.881,5.559,11.77,10.885l-8.37,402.729
			C2041.126,371.615,2033.075,376.636,2024.364,375.433z"/>
	</g>
	<g>
		<path fill="#FF2E4C" d="M2042.533,357.442l-331.063-48.242c-2.771-0.404-4.788-2.335-4.796-4.591l-1.426-419.889
			c-0.01-2.925,3.294-5.14,6.886-4.617l340.734,49.651c2.811,0.41,4.84,2.389,4.795,4.678l-8.244,418.479
			C2049.361,355.801,2046.082,357.959,2042.533,357.442z"/>
	</g>
	<path fill="#FF2E4C" d="M1720.782,478.004l-17.609-3.203c-1.29-0.235-2.475,0.759-2.47,2.07l0.801,194.675
		c0.004,1.009,0.727,1.872,1.72,2.053l17.576,3.196c1.289,0.234,2.475-0.759,2.47-2.07l-0.767-194.668
		C1722.499,479.047,1721.775,478.184,1720.782,478.004z"/>
	<path d="M1751.383,469.283l-17.699-3.219c-1.262-0.23-2.422,0.743-2.417,2.026l0.801,194.766c0.004,0.988,0.712,1.832,1.683,2.009
		l17.666,3.213c1.262,0.229,2.422-0.743,2.417-2.025l-0.768-194.759C1753.063,470.304,1752.355,469.46,1751.383,469.283z"/>
	<path fill="#FF2E4C" d="M1783.741,491.532l-17.164-3.122c-1.426-0.259-2.738,0.84-2.732,2.29l0.799,194.222
		c0.005,1.116,0.804,2.071,1.903,2.271l17.131,3.115c1.426,0.259,2.738-0.84,2.732-2.289l-0.766-194.216
		C1785.639,492.686,1784.839,491.732,1783.741,491.532z"/>
	<path d="M1814.913,477.814l-17.415-3.167c-1.349-0.245-2.59,0.794-2.584,2.166l0.8,194.478c0.004,1.056,0.761,1.959,1.8,2.148
		l17.382,3.161c1.349,0.245,2.589-0.794,2.584-2.165l-0.767-194.471C1816.708,478.906,1815.952,478.003,1814.913,477.814z"/>
	<path fill="#FF2E4C" d="M1846.381,503.304l-16.795-3.055c-1.54-0.28-2.956,0.907-2.95,2.472l0.798,193.847
		c0.005,1.205,0.868,2.236,2.054,2.451l16.762,3.048c1.54,0.28,2.956-0.906,2.95-2.471l-0.764-193.841
		C1848.431,504.551,1847.567,503.52,1846.381,503.304z"/>
	<path d="M1878.178,490.422l-16.104-2.929c-1.752-0.319-3.364,1.032-3.357,2.813l0.795,193.145c0.006,1.371,0.988,2.544,2.338,2.789
		l16.071,2.923c1.752,0.319,3.364-1.031,3.356-2.812l-0.761-193.139C1880.51,491.84,1879.528,490.667,1878.178,490.422z"/>
	<g>
		
			<polyline fill="none" stroke="#000000" stroke-width="7.6145" stroke-linecap="round" stroke-linejoin="round" stroke-miterlimit="10" points="
			2043.402,336.485 1727.892,293.408 1726.428,-114.95 2059.983,-68.891 		"/>
	</g>
	<path fill="#FFFFFF" d="M865.9,59.295c2.718,1.028,5.026,3.894,5.709,8.319c0.025,0.162,0.256,0.163,0.283,0.001
		c0.719-4.396,2.988-7.289,5.699-8.32c0.141-0.053,0.115-0.26-0.034-0.276c-3.259-0.353-4.638-2.458-5.671-7.679
		c-0.03-0.154-0.261-0.155-0.281,0c-0.689,5.221-2.435,7.316-5.672,7.678C865.781,59.035,865.758,59.242,865.9,59.295z"/>
	<path fill="#FF2E4C" d="M1909.911,513.323l-16.795-3.055c-1.54-0.28-2.956,0.907-2.949,2.472l0.797,193.847
		c0.005,1.205,0.869,2.236,2.054,2.451l16.762,3.048c1.54,0.28,2.956-0.906,2.949-2.471l-0.764-193.841
		C1911.96,514.569,1911.097,513.539,1909.911,513.323z"/>
	<g>
		<g>
			<path fill="#FFFFFF" d="M1886.193,448.508l-44.117-9.931c-0.678-0.153-1.16-0.755-1.16-1.451v-52.004
				c0-0.953,0.884-1.66,1.813-1.451l44.117,9.931c0.678,0.153,1.16,0.755,1.16,1.451v52.004
				C1888.007,448.01,1887.123,448.717,1886.193,448.508z"/>
			<path d="M1878.387,433.614l-29.584-6.659c-1.799-0.405-3.076-2.002-3.076-3.846v-29.386c0-2.526,2.343-4.401,4.808-3.846
				l29.584,6.659c1.799,0.405,3.076,2.002,3.076,3.846v29.386C1883.195,432.294,1880.852,434.169,1878.387,433.614z"/>
		</g>
		
			<line fill="none" stroke="#000000" stroke-width="0.9465" stroke-linecap="round" stroke-miterlimit="10" x1="1888.007" y1="395.212" x2="1888.007" y2="447.567"/>
	</g>
	<g>
		<g>
			<path fill="#FFFFFF" d="M1737.339,857.856l-44.117-9.931c-0.678-0.153-1.16-0.755-1.16-1.451V794.47
				c0-0.953,0.884-1.66,1.813-1.451l44.117,9.931c0.678,0.153,1.16,0.755,1.16,1.451v52.004
				C1739.153,857.358,1738.269,858.065,1737.339,857.856z"/>
			<path d="M1729.534,842.962l-29.584-6.659c-1.799-0.405-3.076-2.002-3.076-3.846V803.07c0-2.526,2.343-4.401,4.808-3.846
				l29.584,6.659c1.799,0.405,3.076,2.002,3.076,3.846v29.386C1734.341,841.643,1731.998,843.517,1729.534,842.962z"/>
		</g>
		
			<line fill="none" stroke="#000000" stroke-width="0.9465" stroke-linecap="round" stroke-miterlimit="10" x1="1739.153" y1="804.56" x2="1739.153" y2="856.916"/>
	</g>
	<path fill="#FFFFFF" d="M733.679,24.416c4.247,1.418,7.974,5.691,9.293,12.464c0.048,0.247,0.405,0.235,0.435-0.015
		c0.841-6.812,4.16-11.403,8.271-13.156c0.213-0.091,0.162-0.412-0.07-0.424c-8.102-0.411-7.752-6.724-9.248-12.78
		c-0.058-0.234-0.393-0.221-0.433,0.017c-1.01,6.05-1.453,13.011-8.217,13.465C733.478,24.003,733.458,24.342,733.679,24.416z"/>
</g>
<g id="Business_Card">
</g>
<g id="Portrait">
</g>
<g id="icons">
</g>
</svg>
